<?xml version="1.0" encoding="utf-8"?>
<COLLADA xmlns="http://www.collada.org/2005/11/COLLADASchema" version="1.4.1" xmlns:xsi="http://www.w3.org/2001/XMLSchema-instance">
  <asset>
    <contributor>
      <author>Blender User</author>
      <authoring_tool>Blender 3.6.23 commit date:2025-06-16, commit time:11:52, hash:e467db79ca8c</authoring_tool>
    </contributor>
    <created>2026-08-13T12:24:09</created>
    <modified>2026-08-13T12:24:09</modified>
    <unit name="meter" meter="1"/>
    <up_axis>Z_UP</up_axis>
  </asset>
  <library_effects>
    <effect id="Material_001-effect">
      <profile_COMMON>
        <technique sid="common">
          <lambert>
            <emission>
              <color sid="emission">0 0 0 1</color>
            </emission>
            <diffuse>
              <color sid="diffuse">1 1 1 1</color>
            </diffuse>
            <index_of_refraction>
              <float sid="ior">1.45</float>
            </index_of_refraction>
          </lambert>
        </technique>
      </profile_COMMON>
    </effect>
  </library_effects>
  <library_images/>
  <library_materials>
    <material id="Material_001-material" name="Material.001">
      <instance_effect url="#Material_001-effect"/>
    </material>
  </library_materials>
  <library_geometries>
    <geometry id="Elevator-mesh" name="Elevator">
      <mesh>
        <source id="Elevator-mesh-positions">
          <float_array id="Elevator-mesh-positions-array" count="1287">-0.03313058 -0.08056664 -0.009459435 -0.01518952 -0.08056664 -0.006374478 -0.0141896 -0.1603437 -0.006028294 -0.001668751 -0.2434999 -0.003524899 0.002032577 -0.2434999 -0.002805709 0.002128243 -0.2681499 -0.002733826 0.00198698 -0.2323157 -0.002838194 0.001995146 -0.2343 -0.002832412 -0.001639544 -0.2343 -0.003538608 -0.01328682 -0.2681494 -0.005637586 -0.01350313 -0.2323156 -0.005753099 0.001639604 -0.1603438 -0.003052055 -0.01049405 -0.09069997 -0.005496919 0.001628875 -0.1585 -0.003057777 -0.001388907 -0.1585 -0.003644287 -0.001356899 -0.1493 -0.003656268 0.001573383 -0.1493 -0.003086686 -0.001416027 -0.09069997 -0.003782033 6.77004e-4 -0.07891231 -0.003397822 -0.001413822 -0.08649998 -0.003789722 -0.01049178 -0.08649998 -0.005504965 -0.01084184 -0.2985323 -0.005127847 -0.02895921 -0.2969354 -0.00826776 0.002244293 -0.2996768 -0.002639412 -0.02896416 -0.2969349 -0.008270442 -0.02896946 -0.2969344 -0.008271336 -0.03021216 -0.2323156 -0.008626163 -0.0315963 -0.1603437 -0.009021341 -0.03316259 -0.07889997 -0.009468555 -0.01622569 -0.07889997 -0.006564378 6.64622e-4 -0.07889997 -0.003400266 6.69729e-4 -0.07890212 -0.003399252 -0.01482158 -0.07889997 -0.00423181 -0.001634657 -0.07889997 -4.6673e-4 -0.001182258 -0.07889997 -0.001221537 -4.13164e-4 -0.07889997 -0.001649022 4.66724e-4 -0.07889997 -0.001634657 0.002102077 -0.07889997 -0.002754032 0.001221537 -0.07889997 -0.001182258 0.003134489 -0.07889997 -0.00147587 0.001648962 -0.07889997 -4.1314e-4 0.003461956 -0.07889997 1.34131e-4 0.001634597 -0.07889997 4.66725e-4 0.003331482 -0.07889997 9.51208e-4 -0.01724559 -0.07889997 -0.002992272 0.003010869 -0.07889997 0.001713991 0.001882672 -0.07889997 0.002908408 0.001182258 -0.07889997 0.001221477 3.31089e-4 -0.07889997 0.003448724 4.13149e-4 -0.07889997 0.001649022 -0.001230895 -0.07889997 0.003238558 -0.001649022 -0.07889997 4.13136e-4 -0.001221537 -0.07889997 0.001182258 -4.66739e-4 -0.07889997 0.001634657 0.003151237 -0.299778 -0.001439809 0.001387715 -0.2996457 -9.81908e-4 0.001221477 -0.2996275 -0.001182317 9.82805e-4 -0.2996033 -0.001387059 4.66724e-4 -0.2995554 -0.001634657 1.13611e-4 -0.299525 -0.001696169 -4.5386e-4 -0.2994799 -0.001638233 -9.69135e-4 -0.2994433 -0.001396715 -0.001182198 -0.2994298 -0.001221537 -0.001375377 -0.2994192 -9.99149e-4 -0.001627981 -0.2994104 -4.89434e-4 -0.001698255 -0.2994179 7.63666e-5 -0.00984919 -0.2987251 -5.58779e-4 -0.001648962 -0.2994298 4.13212e-4 -0.0015769 -0.2994409 6.35081e-4 -0.001276373 -0.2994771 0.001122772 -0.001221477 -0.299483 0.001182317 -8.3074e-4 -0.2995221 0.001483142 5.12372e-4 -0.2996768 0.003426492 -4.66739e-4 -0.2995554 0.001634657 -2.91498e-4 -0.2995706 0.001674771 2.79429e-4 -0.2996172 0.001676857 0.001069486 -0.299719 0.003295361 4.13084e-4 -0.2996275 0.001649022 0.001812875 -0.2997712 0.002952456 8.17497e-4 -0.2996568 0.001490473 0.002103209 -0.29979 0.002753138 0.001182258 -0.2996801 0.001221537 0.002896845 -0.2998343 0.001900434 0.00126326 -0.2996848 0.001137554 0.00156778 -0.2996984 6.57276e-4 0.003362238 -0.2998473 8.3589e-4 0.001634597 -0.2996994 4.66718e-4 0.00346297 -0.2998387 1.06616e-4 0.001696884 -0.299696 1.02383e-4 0.003449797 -0.2998278 -3.2024e-4 0.001649022 -0.2996801 -4.13157e-4 0.001635015 -0.2996778 -4.65483e-4 -2.19044e-4 -0.1603438 0.003457665 -2.31154e-4 -0.1585 0.00345689 -0.003103673 -0.1585 0.002361536 -0.01523339 -0.1603437 -0.002372503 -0.003082871 -0.1493 0.002388656 -0.01626539 -0.08056664 -0.002606451 -2.93585e-4 -0.1493 0.003452122 -6.20938e-4 -0.109684 0.003408491 1.98891e-4 -0.2343 0.003458857 1.88874e-4 -0.2323157 0.003459453 -0.003260791 -0.2343 0.002139449 -0.01450514 -0.2323156 -0.002243816 -0.003278315 -0.2434999 0.002112448 -0.01426041 -0.2681494 -0.002227604 2.44797e-4 -0.2434999 0.003455936 3.63959e-4 -0.2681499 0.003445446 -9.30846e-4 -0.08658975 0.003337204 -0.001082241 -0.0808174 0.003291189 -0.001157164 -0.07937556 0.003265619 -0.001212716 -0.07895815 0.003245353 -0.001194536 -0.07901632 0.003252148 -0.001213133 -0.07892775 0.003245234 -0.001228511 -0.07890045 0.003239452 -0.001225888 -0.07890218 0.003240466 -0.001222014 -0.07890689 0.003241896 0.001634597 -0.2434999 4.66725e-4 0.001182258 -0.2434999 0.001221477 0.001812934 -0.2434999 0.002952396 0.001221537 -0.2434999 -0.001182258 0.003098487 -0.2434999 -0.001550018 0.001648962 -0.2434999 -4.1314e-4 0.00346297 -0.2434999 1.06673e-4 0.002997219 -0.2434999 0.001737833 4.13149e-4 -0.2434999 0.001649022 -4.66739e-4 -0.2434999 0.001634657 -0.001221537 -0.2434999 0.001182258 -0.003852367 -0.2434999 6.07578e-4 -0.001649022 -0.2434999 4.13136e-4 -0.003750085 -0.2434999 -0.001070737 -0.001634657 -0.2434999 -4.6673e-4 -0.002950787 -0.2434999 -0.002550005 -0.001182258 -0.2434999 -0.001221537 -4.13164e-4 -0.2434999 -0.001649022 4.66724e-4 -0.2434999 -0.001634657 -0.001634657 -0.2343 -4.6673e-4 -0.003750085 -0.2343 -0.001070737 -0.001182258 -0.2343 -0.001221537 -0.002950787 -0.2343 -0.002550005 -4.13164e-4 -0.2343 -0.001649022 4.66724e-4 -0.2343 -0.001634657 0.001221537 -0.2343 -0.001182258 0.002780854 -0.2343 -0.002066373 0.001648962 -0.2343 -4.1314e-4 0.003408312 -0.2343 -6.21855e-4 0.001634597 -0.2343 4.66725e-4 0.003331482 -0.2343 9.51208e-4 0.001182258 -0.2343 0.001221477 0.002566158 -0.2343 0.00232768 4.13149e-4 -0.2343 0.001649022 0.001270592 -0.2343 0.00322318 -4.66739e-4 -0.2343 0.001634657 -0.001221537 -0.2343 0.001182258 -0.001649022 -0.2343 4.13136e-4 -0.003852367 -0.2343 6.07578e-4 -0.001634657 -0.1585 -4.6673e-4 -0.003750085 -0.1585 -0.001070737 -0.001649022 -0.1585 4.13136e-4 -0.003825187 -0.1585 7.60123e-4 -0.001221537 -0.1585 0.001182258 -4.66739e-4 -0.1585 0.001634657 4.13149e-4 -0.1585 0.001649022 0.001270592 -0.1585 0.00322318 0.001182258 -0.1585 0.001221477 0.002566158 -0.1585 0.00232768 0.001634597 -0.1585 4.66725e-4 0.003331482 -0.1585 9.51208e-4 0.001648962 -0.1585 -4.1314e-4 0.003408312 -0.1585 -6.21855e-4 0.001221537 -0.1585 -0.001182258 0.002780854 -0.1585 -0.002066373 4.66724e-4 -0.1585 -0.001634657 -4.13164e-4 -0.1585 -0.001649022 -0.001182258 -0.1585 -0.001221537 -0.002847194 -0.1585 -0.002665221 0.003134489 -0.1493 -0.00147587 0.003461956 -0.1493 1.34131e-4 0.001634597 -0.1493 4.66725e-4 0.003010869 -0.1493 0.001713991 0.001182258 -0.1493 0.001221477 0.001882672 -0.1493 0.002908408 4.13149e-4 -0.1493 0.001649022 3.31089e-4 -0.1493 0.003448724 -4.66739e-4 -0.1493 0.001634657 -0.001221537 -0.1493 0.001182258 -0.001649022 -0.1493 4.13136e-4 -0.003825187 -0.1493 7.60123e-4 -0.001634657 -0.1493 -4.6673e-4 -0.003750085 -0.1493 -0.001070737 -0.001182258 -0.1493 -0.001221537 -0.002847194 -0.1493 -0.002665221 -4.13164e-4 -0.1493 -0.001649022 4.66724e-4 -0.1493 -0.001634657 0.001221537 -0.1493 -0.001182258 0.002102077 -0.1493 -0.002754032 0.001648962 -0.1493 -4.1314e-4 -0.01020646 -0.09069997 -0.006504178 -0.001359999 -0.09069997 -0.003978312 -0.001359999 -0.08649998 -0.003978312 -0.01020646 -0.08649998 -0.006504178 -0.009629547 -0.08709996 -0.00633943 -0.001936972 -0.08709996 -0.004143059 -0.009899437 -0.08709996 -0.00539422 -0.002005577 -0.08709996 -0.003902733 -0.009629547 -0.09009999 -0.00633943 -0.009901046 -0.09009999 -0.005388498 -0.001936972 -0.09009999 -0.004143059 -0.002005457 -0.08689999 -0.00390309 -0.01009678 -0.08689999 -0.005431175 -0.01009851 -0.09009999 -0.005425035 -0.01119452 -0.09009999 -0.001586437 -0.01119452 -0.08689999 -0.001586437 -0.003309726 -0.09009999 6.64789e-4 -0.003309726 -0.08689999 6.64789e-4 0.002128243 0.1101498 -0.002733826 -0.01328682 0.1101495 -0.005637586 0.002244293 0.1416769 -0.002639412 -0.01084184 0.1405323 -0.005127847 -0.02896416 0.1389349 -0.008269131 -0.02895921 0.1389354 -0.00826776 -0.01622569 -0.07909995 -0.006564378 -0.01518952 -0.07743328 -0.006374478 6.64622e-4 -0.07909995 -0.003400266 6.77004e-4 -0.07908761 -0.003397822 6.69729e-4 -0.07909786 -0.003399252 0.001639604 0.002343773 -0.003052055 0.001628875 4.99999e-4 -0.003057777 -0.001388907 4.99999e-4 -0.003644287 -0.001416027 -0.06729996 -0.003782033 0.001573383 -0.008699953 -0.003086686 -0.0141896 0.002343714 -0.006028294 -0.01049405 -0.06729996 -0.005496919 -0.01049178 -0.0715 -0.005504965 -0.001413822 -0.0715 -0.003789722 -0.001356899 -0.008699953 -0.003656268 0.001995146 0.07629996 -0.002832412 0.00198698 0.07431566 -0.002838194 -0.001639544 0.07629996 -0.003538608 -0.01350313 0.0743156 -0.005753099 -0.001668751 0.0855 -0.003524899 0.002032577 0.0855 -0.002805709 -0.02896946 0.1389343 -0.008271336 -0.03021216 0.0743156 -0.008626163 -0.0315963 0.002343714 -0.009021341 -0.03313058 -0.07743328 -0.009459435 -0.03316259 -0.07909995 -0.009468555 -0.001634657 -0.07909995 -4.6673e-4 0.003461956 -0.07909995 1.34131e-4 0.003331482 -0.07909995 9.51208e-4 0.001634597 -0.07909995 4.66725e-4 0.003134489 -0.07909995 -0.00147587 0.001648962 -0.07909995 -4.1314e-4 0.002102077 -0.07909995 -0.002754032 0.001221537 -0.07909995 -0.001182258 4.66724e-4 -0.07909995 -0.001634657 -4.13164e-4 -0.07909995 -0.001649022 -0.001182258 -0.07909995 -0.001221537 -0.01724559 -0.07909995 -0.002992272 -0.001649022 -0.07909995 4.13136e-4 -0.001230895 -0.07909995 0.003238558 -0.001221537 -0.07909995 0.001182258 -4.66739e-4 -0.07909995 0.001634657 3.31089e-4 -0.07909995 0.003448724 4.13149e-4 -0.07909995 0.001649022 0.001882672 -0.07909995 0.002908408 0.001182258 -0.07909995 0.001221477 0.003010869 -0.07909995 0.001713991 0.002896845 0.1418343 0.001900434 0.00126326 0.1416847 0.001137554 0.002103209 0.14179 0.002753138 0.001182258 0.1416801 0.001221537 0.001812875 0.1417712 0.002952456 8.17497e-4 0.1416567 0.001490473 0.001069486 0.141719 0.003295361 4.13084e-4 0.1416275 0.001649022 5.12372e-4 0.1416769 0.003426492 2.79429e-4 0.1416172 0.001676857 -2.91498e-4 0.1415706 0.001674771 -0.001221477 0.141483 0.001182317 -0.00984919 0.140725 -5.58779e-4 -8.3074e-4 0.141522 0.001483142 -4.66739e-4 0.1415554 0.001634657 -0.001276373 0.1414771 0.001122772 -0.0015769 0.1414409 6.35081e-4 -0.001648962 0.1414298 4.13212e-4 -0.001698255 0.1414178 7.63666e-5 -0.001627981 0.1414103 -4.89434e-4 -0.001375377 0.1414191 -9.99149e-4 -0.001182198 0.1414298 -0.001221537 -9.69135e-4 0.1414432 -0.001396715 -4.5386e-4 0.1414799 -0.001638233 1.13611e-4 0.141525 -0.001696169 4.66724e-4 0.1415554 -0.001634657 9.82805e-4 0.1416032 -0.001387059 0.001221477 0.1416275 -0.001182317 0.003151237 0.141778 -0.001439809 0.001387715 0.1416457 -9.81908e-4 0.001635015 0.1416777 -4.65483e-4 0.003449797 0.1418278 -3.2024e-4 0.001649022 0.1416801 -4.13157e-4 0.00346297 0.1418386 1.06616e-4 0.001696884 0.1416959 1.02383e-4 0.003362238 0.1418473 8.3589e-4 0.001634597 0.1416993 4.66718e-4 0.00156778 0.1416983 6.57276e-4 -0.01426041 0.1101495 -0.002227604 3.63959e-4 0.1101498 0.003445446 1.88874e-4 0.07431566 0.003459453 1.98891e-4 0.07629996 0.003458857 -0.003260791 0.07629996 0.002139449 -0.003082871 -0.008699953 0.002388656 -0.003103673 4.99999e-4 0.002361536 -0.01523339 0.002343714 -0.002372503 -0.001157164 -0.07862442 0.003265619 -0.001082241 -0.07718253 0.003291189 -0.01626539 -0.07743328 -0.002606451 -9.30846e-4 -0.07141017 0.003337204 -6.20938e-4 -0.04831594 0.003408491 2.44797e-4 0.0855 0.003455936 -0.003278315 0.0855 0.002112448 -0.01450514 0.0743156 -0.002243816 -2.19044e-4 0.002343773 0.003457665 -2.31154e-4 4.99999e-4 0.00345689 -0.001194536 -0.07898366 0.003252148 -0.001212716 -0.07904183 0.003245353 -0.001213133 -0.07907223 0.003245234 -0.001228511 -0.07909947 0.003239452 -0.001225888 -0.07909774 0.003240466 -0.001222014 -0.07909303 0.003241896 -2.93585e-4 -0.008699953 0.003452122 0.003098487 0.0855 -0.001550018 0.001648962 0.0855 -4.1314e-4 0.001634597 0.0855 4.66725e-4 4.13149e-4 0.0855 0.001649022 0.001812934 0.0855 0.002952396 0.001182258 0.0855 0.001221477 0.002997219 0.0855 0.001737833 0.00346297 0.0855 1.06673e-4 0.001221537 0.0855 -0.001182258 4.66724e-4 0.0855 -0.001634657 -4.13164e-4 0.0855 -0.001649022 -0.002950787 0.0855 -0.002550005 -0.001182258 0.0855 -0.001221537 -0.003750085 0.0855 -0.001070737 -0.001634657 0.0855 -4.6673e-4 -0.003852367 0.0855 6.07578e-4 -0.001649022 0.0855 4.13136e-4 -0.001221537 0.0855 0.001182258 -4.66739e-4 0.0855 0.001634657 -0.001634657 0.07629996 -4.6673e-4 -0.003750085 0.07629996 -0.001070737 -0.001649022 0.07629996 4.13136e-4 -0.003852367 0.07629996 6.07578e-4 -0.001221537 0.07629996 0.001182258 -4.66739e-4 0.07629996 0.001634657 4.13149e-4 0.07629996 0.001649022 0.001270592 0.07629996 0.00322318 0.001182258 0.07629996 0.001221477 0.002566158 0.07629996 0.00232768 0.001634597 0.07629996 4.66725e-4 0.003331482 0.07629996 9.51208e-4 0.001648962 0.07629996 -4.1314e-4 0.003408312 0.07629996 -6.21855e-4 0.001221537 0.07629996 -0.001182258 0.002780854 0.07629996 -0.002066373 4.66724e-4 0.07629996 -0.001634657 -4.13164e-4 0.07629996 -0.001649022 -0.001182258 0.07629996 -0.001221537 -0.002950787 0.07629996 -0.002550005 -0.001634657 4.99999e-4 -4.6673e-4 -0.003750085 4.99999e-4 -0.001070737 -0.001182258 4.99999e-4 -0.001221537 -0.002847194 4.99999e-4 -0.002665221 -4.13164e-4 4.99999e-4 -0.001649022 4.66724e-4 4.99999e-4 -0.001634657 0.001221537 4.99999e-4 -0.001182258 0.002780854 4.99999e-4 -0.002066373 0.001648962 4.99999e-4 -4.1314e-4 0.003408312 4.99999e-4 -6.21855e-4 0.001634597 4.99999e-4 4.66725e-4 0.003331482 4.99999e-4 9.51208e-4 0.001182258 4.99999e-4 0.001221477 0.002566158 4.99999e-4 0.00232768 4.13149e-4 4.99999e-4 0.001649022 0.001270592 4.99999e-4 0.00322318 -4.66739e-4 4.99999e-4 0.001634657 -0.001221537 4.99999e-4 0.001182258 -0.001649022 4.99999e-4 4.13136e-4 -0.003825187 4.99999e-4 7.60123e-4 0.001882672 -0.008699953 0.002908408 0.003010869 -0.008699953 0.001713991 0.001634597 -0.008699953 4.66725e-4 0.003461956 -0.008699953 1.34131e-4 0.001648962 -0.008699953 -4.1314e-4 0.003134489 -0.008699953 -0.00147587 0.001221537 -0.008699953 -0.001182258 0.002102077 -0.008699953 -0.002754032 4.66724e-4 -0.008699953 -0.001634657 -4.13164e-4 -0.008699953 -0.001649022 -0.001182258 -0.008699953 -0.001221537 -0.002847194 -0.008699953 -0.002665221 -0.001634657 -0.008699953 -4.6673e-4 -0.003750085 -0.008699953 -0.001070737 -0.001649022 -0.008699953 4.13136e-4 -0.003825187 -0.008699953 7.60123e-4 -0.001221537 -0.008699953 0.001182258 -4.66739e-4 -0.008699953 0.001634657 4.13149e-4 -0.008699953 0.001649022 3.31089e-4 -0.008699953 0.003448724 0.001182258 -0.008699953 0.001221477 -0.01020646 -0.06729996 -0.006504178 -0.001359999 -0.06729996 -0.003978312 -0.001359999 -0.0715 -0.003978312 -0.01020646 -0.0715 -0.006504178 -0.001936972 -0.07089996 -0.004143059 -0.009629547 -0.07089996 -0.00633943 -0.002005577 -0.07089996 -0.003902733 -0.009899437 -0.07089996 -0.00539422 -0.009629547 -0.0679 -0.00633943 -0.009901046 -0.0679 -0.005388498 -0.001936972 -0.0679 -0.004143059 -0.01009851 -0.0679 -0.005425035 -0.01009678 -0.07109999 -0.005431175 -0.002005457 -0.07109999 -0.00390309 -0.01119452 -0.07109999 -0.001586437 -0.01119452 -0.0679 -0.001586437 -0.003309726 -0.07109999 6.64789e-4 -0.003309726 -0.0679 6.64789e-4</float_array>
          <technique_common>
            <accessor source="#Elevator-mesh-positions-array" count="429" stride="3">
              <param name="X" type="float"/>
              <param name="Y" type="float"/>
              <param name="Z" type="float"/>
            </accessor>
          </technique_common>
        </source>
        <source id="Elevator-mesh-normals">
          <float_array id="Elevator-mesh-normals-array" count="2157">0.1694602 -0.002152681 -0.9855347 0.1907485 -0.002120614 -0.9816367 0.190715 -0.002064287 -0.9816433 0.1831594 -0.002061963 -0.9830811 0.1849266 0.008895874 -0.982712 0.1849303 -0.001994252 -0.9827496 0.1847839 -0.002028346 -0.9827771 0.179501 -0.002019107 -0.9837557 0.190771 -0.001941621 -0.9816327 0.184771 -0.01213908 -0.9827067 0.1833615 -0.001923561 -0.9830437 0.1836285 -0.002243936 -0.9829931 0.1908037 -0.001082241 -0.9816277 0.185624 -0.002189636 -0.9826185 0.1909334 -0.001906752 -0.9816012 0.1908563 -0.001892387 -0.9816163 0.1843962 -4.86201e-5 -0.9828521 0.1856655 0.003004133 -0.9826085 0.1795755 -0.001983344 -0.9837423 0.1705228 -0.002809941 -0.9853498 0.1830996 -0.002040982 -0.9830923 0.1851145 -0.003022909 -0.9827124 0.1851156 -0.001591444 -0.9827156 0.1866204 -0.002256393 -0.9824295 0.4582514 -0.1700141 -0.872411 0.1630022 0.002071321 -0.9866235 0.1694598 -0.002152562 -0.9855348 0.1694598 -0.002152502 -0.9855348 0.1694598 -0.002152442 -0.9855347 0.1694603 -0.002152562 -0.9855347 0.1694604 -0.002152621 -0.9855347 0.1694614 -0.002147257 -0.9855346 0.1689997 -0.007213234 -0.9855898 0.1841387 0.002504944 -0.9828971 0.184132 -0.009660363 -0.9828541 0.1912539 -0.002881526 -0.9815365 0 1 -6.57192e-6 0 1 9.14055e-6 0 1 -8.45316e-6 0 1 -1.36499e-6 0 1 -1.6421e-5 0 1 0 0 1 1.37738e-5 0 1 -4.55627e-6 0 1 -6.09903e-6 0 1 5.63245e-6 0 1 -4.85722e-6 0 1 -5.39294e-6 0 1 1.02898e-5 0 1 -2.10995e-6 0 1 7.05783e-6 0 1 4.67496e-6 -0.08073514 -0.9964706 -0.022987 -0.0810588 -0.9964397 -0.02318197 -0.08119904 -0.9964246 -0.023341 -0.08127748 -0.9964207 -0.02323365 -0.08147984 -0.9963886 -0.02389711 -0.08228278 -0.9962827 -0.02550327 -0.08201324 -0.9962809 -0.02642571 -0.08250242 -0.9962776 -0.0249871 -0.08276122 -0.9962741 -0.0242604 -0.08276498 -0.9962714 -0.024356 -0.08292895 -0.9962722 -0.0237624 -0.08284658 -0.9962849 -0.02351319 -0.08282107 -0.9962264 -0.02595686 -0.08407181 -0.9962259 -0.02158486 -0.08287012 -0.9962852 -0.02341645 -0.08288294 -0.9963024 -0.02263015 -0.08294552 -0.9962971 -0.02263402 -0.083045 -0.9962463 -0.02443206 -0.08322578 -0.9963113 -0.02091443 -0.08307248 -0.9963018 -0.02195239 -0.08176994 -0.9963834 -0.02310508 -0.08148628 -0.9964136 -0.02280294 -0.08126503 -0.9964237 -0.02314913 -0.08082687 -0.996459 -0.0231648 -0.08121883 -0.9964316 -0.02296859 -0.08069419 -0.9964686 -0.02321732 -0.08100146 -0.996451 -0.02290141 -0.08055353 -0.9964806 -0.02318584 -0.08080613 -0.9964666 -0.02290952 -0.08045697 -0.9964897 -0.02313339 -0.08055394 -0.996491 -0.02273243 -0.08055812 -0.9964855 -0.02295786 -0.08042383 -0.9964944 -0.0230453 -0.08043366 -0.9964978 -0.02286428 -0.08043467 -0.996497 -0.02289593 -0.08045732 -0.9964891 -0.02315759 -0.08045852 -0.9964978 -0.02277648 -0.08052301 -0.9964827 -0.02320468 -0.08053714 -0.9964905 -0.02281135 -0.08078241 -0.9964717 -0.02276724 -0.08080172 -0.996459 -0.02325212 -0.3562942 -0.001941561 0.9343718 -0.36195 -0.01213979 0.9321185 -0.3633227 -0.001923441 0.9316614 -0.3632891 -0.001967132 0.9316744 -0.3562564 -4.21107e-4 0.9343882 -0.3620538 -0.001965045 0.9321551 -0.3563497 -0.002064704 0.9343504 -0.3618259 0.008896172 0.9322032 -0.36351 -0.00204122 0.9315881 -0.3635305 -0.002062082 0.93158 -0.3563037 -0.005770504 0.9343525 -0.3616615 -0.002145588 0.932307 -0.361662 -0.001291155 0.9323084 -0.3591639 -0.002251625 0.9332718 0.05150401 0.9986729 0 -0.3620798 -0.001981198 0.9321451 -0.3621108 -0.002072989 0.9321328 -0.3621146 -0.002272367 0.9321309 -0.3549471 -0.001774966 0.9348848 -0.3572435 -0.004256486 0.9340017 -0.356163 -0.002104759 0.9344216 -0.3548308 -0.001776039 0.934929 -0.3548668 -0.001770317 0.9349152 -0.3626199 -0.004404783 0.9319267 -0.362574 0.00251466 0.9319517 -0.3618829 -0.004271924 0.9322138 -0.3620834 -0.002683341 0.9321419 -0.09555286 -0.9946994 0.03798371 -0.3743562 -0.003397166 0.9272788 -0.3764451 -0.002152502 0.9264364 -0.3764456 -0.002152562 0.9264363 -0.3764455 -0.002152562 0.9264363 -0.3618364 -0.002027511 0.9322395 -0.3619754 -0.001995742 0.9321856 -0.376445 -0.002152442 0.9264364 -0.3764451 -0.002152681 0.9264365 -0.3764452 -0.002152681 0.9264364 -0.3764374 -0.006919205 0.9264162 -0.3768746 -0.00215733 0.9262618 0 1 -2.06717e-5 0 1 -1.98517e-6 0 1 2.3023e-6 0 1 -1.65639e-5 0 1 1.82778e-5 0 1 -3.56543e-5 0 1 3.20779e-5 0 1 -6.3303e-5 0 1 9.41105e-5 0 1 -1.61143e-5 0 1 -7.51703e-6 0 1 -1.92727e-5 0 1 1.82778e-5 0 -1 6.2254e-5 0 -1 -1.58258e-5 0 -1 0 0 -1 -7.07694e-5 0 -1 -1.82405e-5 0 -1 -1.54055e-5 0 -1 3.69028e-5 0 -1 -3.76756e-5 0 -1 -1.34418e-6 0 -1 7.76124e-5 0 -1 -1.05775e-5 0 -1 8.07082e-5 0 -1 -2.07343e-5 0 -1 3.87912e-5 0 -1 -5.88655e-5 0 -1 -2.31642e-5 0 1 3.1127e-5 0 1 9.65047e-6 0 1 -1.12953e-5 0 1 -9.09514e-6 0 1 6.91927e-6 0 1 -2.64437e-6 0 1 4.58729e-5 0 1 -1.06821e-5 0 1 3.72788e-6 0 1 -1.52395e-5 0 -1 -5.31674e-6 0 -1 1.05902e-5 0 -1 -1.08913e-5 0 -1 -1.49455e-5 0 -1 1.53114e-5 0 -1 -6.09581e-5 0 -1 1.47055e-5 0 -1 2.38295e-5 0 -1 -1.36707e-5 0.9328534 -7.24209e-4 -0.3602556 0.9343365 0 -0.3563922 0.9981493 0 0.06081241 0.9981493 0 0.06081235 0.8797833 0 0.4753749 0.8797833 0 0.4753748 0.6020096 0 0.7984889 0.6053098 -7.38477e-4 0.7959897 0.9099273 -8.37924e-4 -0.4147671 0.9117391 0 -0.4107698 0.9991602 0 0.04097318 0.9991603 0 0.0409733 0.8701673 0 0.4927564 0.8701682 0 0.4927551 0.5537569 0 0.8326784 0.5574055 -8.53725e-4 0.83024 -0.01632589 0 0.9998667 -0.01632612 0 0.9998667 0.4858221 0 0.8740578 0.4858217 0 0.874058 0.8577545 0 0.5140597 0.8577544 0 0.5140598 0.9998668 0 0.01632779 0.9998668 0 0.01632779 0.8740816 0 -0.4857793 0.8740816 0 -0.4857792 0.5140611 0 -0.8577537 0.01632589 0 -0.9998667 0.01632612 0 -0.9998667 -0.4858211 0 -0.8740583 -0.4858213 0 -0.8740581 -0.8577545 0 -0.5140596 -0.8577547 0 -0.5140594 -0.9998667 0 -0.01632767 -0.9998667 0 -0.01632767 -0.8740818 0 0.4857788 -0.8740819 0 0.4857788 -0.5140611 0 0.8577537 -0.5140611 0 0.8577536 -0.01632624 0 0.9998668 -0.01632583 0 0.9998667 0.4858219 0 0.8740579 0.4858219 0 0.874058 0.8577544 0 0.5140598 0.8577544 0 0.5140599 0.9998667 0 0.01632779 0.9998667 0 0.01632779 0.8740816 0 -0.4857793 0.8740816 0 -0.4857792 0.514061 0 -0.8577537 0.5140612 0 -0.8577536 0.01632583 0 -0.9998668 0.0163263 0 -0.9998667 -0.4858213 0 -0.8740583 -0.4858211 0 -0.8740583 -0.8577545 0 -0.5140596 -0.8577547 0 -0.5140593 -0.9998667 0 -0.01632767 -0.8740819 0 0.4857788 -0.874082 0 0.4857785 -0.514061 0 0.8577537 -0.5140611 0 0.8577536 0.4858221 0 0.8740577 0.1013882 -0.001731514 0.9948455 -0.01632612 2.03927e-4 0.9998667 0.4244689 -1.34658e-4 0.9054426 0.6348493 -0.002824425 0.7726309 0.9998663 -9.79258e-4 0.01632779 0.9923687 6.82851e-5 0.1233067 0.8577545 -1.06449e-4 0.5140597 0.8960096 -0.001328349 0.4440327 0.7550037 4.72608e-7 0.6557206 0.7348484 2.9783e-7 -0.6782314 0.8513997 -2.77233e-4 -0.5245174 0.8740812 -8.00239e-4 -0.4857793 0.9510533 2.6575e-7 -0.3090272 0.9894559 5.1946e-7 -0.1448343 0.6100491 0 -0.7923637 0.5140609 -0.001020729 -0.8577531 0.3842169 0 -0.9232429 0.2233062 0 -0.9747483 0.01632595 -6.64869e-4 -0.9998666 0.00357151 -5.04644e-4 -0.9999936 -0.4858211 -0.001030802 -0.8740578 -0.3649508 2.48309e-7 -0.9310268 -0.2038583 0 -0.9790005 -0.9435924 0 -0.3311092 -0.8445848 -8.10544e-4 -0.5354214 -0.8577545 -4.68436e-4 -0.5140594 -0.7197957 -3.90158e-7 -0.694186 -0.5934301 -5.04557e-7 -0.8048856 -0.9857174 0 -0.1684078 -0.9998662 -0.001001656 -0.01632761 -0.9957159 0 0.09246605 -0.8740817 -8.53355e-4 0.4857785 -0.9019379 -1.77565e-4 0.4318659 -0.9659857 -1.63441e-7 0.2585957 -0.1716527 0 0.9851576 -0.4325132 0 0.9016277 -0.5140609 -9.43743e-4 0.8577532 -0.6510832 -1.59405e-7 0.7590064 -0.7697411 0 0.6383563 -0.0872364 0.7520167 0.653346 -0.1247035 0.3472391 0.9294483 -0.1305434 0.1939125 0.9722945 -0.1318063 0.1018112 0.9860333 -0.1313388 0.04950785 0.9901006 -0.1295508 0.02372765 0.991289 -0.1255972 0.01107472 0.9920195 -0.1172536 0.004836738 0.9930902 -0.09861576 0.001748621 0.9951241 0.4116777 0.001214981 -0.9113288 0.4053564 0.1615136 -0.8997775 0.3565899 0.4848745 -0.7985866 0.5325859 0 -0.846376 0.7779116 0 -0.6283738 0.7779115 0 -0.6283738 0.9799366 0 -0.1993097 0.9799365 0 -0.1993097 0.9874811 0 0.1577373 0.9615725 -0.001403748 0.2745478 0.9218999 0 0.3874282 0.7269729 0 0.6866662 0.7269731 0 0.686666 0.3288607 0 0.9443784 0.3288608 0 0.9443785 -0.04224079 0 0.9991075 0.005410909 0.001146018 0.9999848 0.6522962 0.001431584 -0.7579628 0.2147972 8.06428e-4 0.9766584 0.1537593 0.001431524 0.9881074 0.2155643 0.001246035 0.9764889 0.6980838 8.06677e-4 -0.7160156 0.1554868 0 0.987838 0.5685949 0 0.8226177 0.5685952 0 0.8226175 0.8739987 0 0.4859284 0.8739989 0 0.4859281 0.9988089 0 0.04879474 0.9988089 0 0.04879474 0.9172168 0 -0.3983885 0.9172169 0 -0.3983885 0.6970502 0 -0.7170224 0.6527879 8.99705e-4 -0.7575402 0.7623614 0.001072227 -0.6471508 0.2290848 4.93404e-4 0.9734064 0.2918388 0.00197637 0.9564655 0.3057395 0.001072227 0.9521147 0.7977145 0.001129329 -0.6030344 0.7784958 -4.99387e-4 -0.6276498 0.9662481 4.01418e-4 -0.2576133 0.9766458 0.001399874 -0.2148514 0.9615718 0.001834213 0.2745476 0.990594 1.42532e-7 0.1368345 0.9995228 3.3076e-7 -0.0308929 0.4188836 8.41196e-7 0.90804 0.5659867 4.70382e-7 0.8244144 0.7159731 0.001220881 0.6981268 0.7320161 6.62339e-4 0.6812871 0.9162744 -4.76141e-4 0.4005511 0.9615734 0 0.2745479 0.9615737 0 0.2745472 0 1 -1.21776e-5 -0.9615736 0 -0.2745477 -0.9615734 0 -0.2745485 0 -1 -1.48039e-5 0 -1 4.36734e-5 0.961573 0 0.2745496 0.9615734 0 0.2745482 0.2745471 0 -0.9615737 0.2745488 0 -0.9615732 0.2745451 0 -0.9615743 0.2745468 0 -0.9615737 0.2745476 0 -0.9615736 0.2745484 0 -0.9615734 0.2745453 0 -0.9615743 0.2745468 0 -0.9615738 -0.1856606 0.001896321 0.9826121 -0.185563 -0.001687645 0.982631 -0.1819747 0.001977264 0.9833012 -0.1819644 0.001979053 0.9833031 0.2745473 0 -0.9615737 0.2745484 0 -0.9615734 0.9615734 0 0.274548 0.9615735 0 0.2745481 0 -1 -2.66306e-6 -0.9615738 0 -0.2745468 -0.9615734 0 -0.2745482 -0.9615772 0 -0.2745348 -0.9615734 0 -0.2745481 0.185115 0.002262771 -0.9827143 0.1866878 0.001459896 -0.9824183 -0.06778413 0.985951 -0.1526634 0.184129 -0.00249952 -0.982899 0.1853926 0.008503973 -0.9826278 0.1895749 0.002855896 -0.9818621 0.1907692 0.001941621 -0.981633 0.1909334 0.001906752 -0.9816012 0.179501 0.002019107 -0.9837557 0.1795756 0.001983344 -0.9837422 0.1842081 -0.001810193 -0.9828856 0.1856661 4.109e-4 -0.9826129 0.1908557 0.001892387 -0.9816163 0.1908039 0.001913666 -0.9816263 0.185624 0.001920998 -0.982619 0.1855657 0.001930713 -0.98263 0.1834048 0.002231776 -0.9830349 0.1847708 0.01213908 -0.9827067 0.1907135 0.002064287 -0.9816436 0.184924 -0.008895754 -0.9827126 0.1831627 0.002041161 -0.9830806 0.1831437 0.002062082 -0.983084 0.190746 0.005770385 -0.9816225 0.1851151 0.002145588 -0.9827145 -0.07675093 0.9953064 -0.0589447 0.1706183 0.002801954 -0.9853332 0.1694598 0.002152502 -0.9855347 0.1694598 0.002152562 -0.9855347 0.1694599 0.002152562 -0.9855348 0.1849303 0.002027571 -0.9827495 0.1847841 0.001995742 -0.9827771 0.1694603 0.002152383 -0.9855347 0.1694604 0.002152681 -0.9855347 0.1694602 0.002152621 -0.9855347 0.1694559 0.006920039 -0.9855136 0.1690038 0.002156853 -0.9856131 0 -1 -4.40035e-6 0 -1 2.42861e-6 0 -1 -5.14491e-6 0 -1 2.55792e-6 0 -1 -9.34993e-6 0 -1 -4.1417e-6 0 -1 6.33987e-6 0 -1 -3.82314e-6 0 -1 5.4153e-6 0 -1 -1.19436e-6 0 -1 3.72039e-6 0 -1 4.67496e-6 0 -1 -5.29509e-6 0 -1 4.55628e-6 0 -1 4.5388e-6 -0.08043879 0.9964917 -0.02311056 -0.08078283 0.9964643 -0.02308946 -0.08050239 0.9964867 -0.02310299 -0.08084791 0.9964616 -0.0229817 -0.08063691 0.9964756 -0.02311456 -0.08103984 0.9964436 -0.02308183 -0.08081936 0.9964599 -0.0231536 -0.08124661 0.9964259 -0.02312272 -0.08129084 0.9964216 -0.02314907 -0.08322721 0.9963 -0.02143651 -0.08307439 0.996302 -0.02193671 -0.08171343 0.9963914 -0.02296143 -0.08148372 0.9964103 -0.02296119 -0.0830515 0.9962977 -0.02221214 -0.08294749 0.9962968 -0.02263802 -0.08288389 0.9962911 -0.02311474 -0.0828672 0.9962915 -0.02316021 -0.08284652 0.996284 -0.02355444 -0.08282107 0.9962262 -0.02596431 -0.08407187 0.9962262 -0.02157223 -0.08292877 0.9962702 -0.02384263 -0.08278638 0.9962747 -0.02415007 -0.08273935 0.9962738 -0.02435231 -0.08251553 0.9962807 -0.02482223 -0.08225798 0.9962809 -0.02565455 -0.08178788 0.9963512 -0.024396 -0.08148235 0.9963935 -0.0236786 -0.08129656 0.9964171 -0.02332431 -0.08119928 0.9964277 -0.023211 -0.08076786 0.9964684 -0.02296465 -0.08082103 0.9964582 -0.02322137 -0.08079445 0.9964608 -0.02320259 -0.08054119 0.9964889 -0.02286893 -0.08052903 0.9964835 -0.02314859 -0.08053618 0.9964922 -0.0227496 -0.08045697 0.9964876 -0.02322179 -0.0804581 0.9964946 -0.02291524 -0.0804196 0.9964975 -0.0229215 -0.08041387 0.9964954 -0.0230323 -0.08049368 0.9964909 -0.02294862 -0.08054029 0.9964889 -0.02287238 -0.3743796 0.0034011 0.9272693 -0.3616616 0.001291155 0.9323086 -0.3591641 0.002251625 0.9332718 -0.3563418 0.002064645 0.9343535 -0.3633236 0.001923441 0.9316611 -0.3621135 0.002272427 0.9321312 -0.3621107 0.002072989 0.9321328 -0.36208 0.001981198 0.9321449 -0.3563079 0.002120614 0.9343663 -0.3616601 0.003022968 0.9323051 -0.3635717 0.002041041 0.9315641 -0.3635156 0.002061963 0.9315859 -0.3618234 -0.008896112 0.9322042 -0.3618366 0.001994252 0.9322395 -0.3619753 0.002028346 0.9321856 -0.3619494 0.01213979 0.9321187 -0.3562883 0.001941561 0.9343741 -0.3620834 0.002683341 0.9321419 -0.3620448 0.004273831 0.9321509 -0.3549305 0.001773595 0.9348911 -0.3557993 0.001988768 0.9345604 -0.3549063 0.001773297 0.9349003 -0.3549425 0.001771271 0.9348865 -0.376445 0.002152502 0.9264364 -0.3764455 0.002152442 0.9264364 -0.3764454 0.002152502 0.9264363 -0.3764452 0.002152562 0.9264364 -0.385371 -0.003000259 0.9227569 -0.2693734 0.06370061 0.9609268 -0.3764451 0.002152621 0.9264364 -0.3764451 0.002152681 0.9264364 -0.3632892 0.001967132 0.9316744 -0.3613749 0.001545906 0.9324194 -0.3562559 0.00191468 0.9343865 -0.3764445 0.002147674 0.9264367 -0.3768657 0.007211685 0.92624 -0.3625697 -0.002514779 0.9319533 -0.3626199 0.004404783 0.9319267 -0.3567656 0.002270519 0.9341913 0 -1 -5.29396e-6 0 -1 9.08989e-6 0 -1 -9.07506e-6 0 -1 -1.03402e-5 0 -1 9.13889e-6 0 -1 -8.91359e-6 0 -1 -8.01947e-6 0 -1 8.18513e-6 0 -1 -3.89088e-6 0 -1 1.61143e-5 0 -1 -2.03195e-5 0 -1 1.10263e-5 0 -1 -4.81818e-6 0 -1 9.13888e-6 0 1 -1.55635e-5 0 1 8.40742e-6 0 1 -1.18304e-5 0 1 1.07137e-5 0 1 -2.28006e-6 0 1 1.72982e-6 0 1 9.41888e-6 0 1 1.32218e-6 0 1 -2.59179e-6 0 1 -2.12008e-5 0 1 6.89019e-6 0 1 3.67909e-6 0 1 4.02857e-6 0 -1 -1.2159e-7 0 -1 0 0 -1 1.24783e-7 0 -1 0 0 -1 0 0 -1 0 0 -1 0 0 -1 -1.51587e-7 0 -1 0 0 -1 0 0 -1 0 0 -1 0 0 1 -5.96184e-7 0 1 -3.32296e-7 0 1 1.65979e-7 0 1 1.14782e-6 0 1 1.60134e-6 0 1 -2.81239e-6 0 1 -6.80707e-7 0 1 3.50284e-7 0 1 -4.64208e-7 0 1 0 0 1 -4.63228e-7 0 1 2.07574e-6 0 1 -6.74118e-7 0 1 -6.07152e-7 0.6020099 7.243e-4 0.7984883 0.6053081 0 0.7959913 0.8797838 0 0.4753741 0.9981493 0 0.06081223 0.9328539 0 -0.360255 0.9343361 7.38383e-4 -0.3563924 0.553757 8.37841e-4 0.8326779 0.5574059 0 0.8302401 0.8701673 0 0.4927564 0.8701673 0 0.4927563 0.9991602 0 0.0409733 0.9099274 0 -0.4147675 0.9117386 8.5381e-4 -0.4107699 -0.514061 0 0.8577536 -0.8740819 0 0.4857787 -0.8740819 0 0.4857788 -0.9998667 0 -0.01632767 -0.8577546 0 -0.5140594 -0.485821 0 -0.8740584 -0.4858212 0 -0.8740583 0.01632589 0 -0.9998667 0.01632612 0 -0.9998667 0.8740815 0 -0.4857793 0.9998668 0 0.01632779 0.9998668 0 0.01632779 0.8577545 0 0.5140598 0.8577544 0 0.5140597 0.4858219 0 0.8740579 0.485822 0 0.8740578 -0.01632612 0 0.9998667 -0.514061 0 0.8577536 -0.8740819 0 0.4857787 -0.8740819 0 0.4857788 -0.8577547 0 -0.5140594 -0.485821 0 -0.8740584 -0.4858214 0 -0.8740582 0.01632624 0 -0.9998667 0.01632583 0 -0.9998667 0.5140612 0 -0.8577536 0.8740816 0 -0.4857792 0.9998667 0 0.01632779 0.8577544 0 0.5140599 0.4858217 0 0.874058 -0.01632583 0 0.9998667 -0.01632624 0 0.9998667 -0.6510829 1.59405e-7 0.7590066 -0.5140609 9.43743e-4 0.8577532 -0.7697413 0 0.638356 -0.8740815 8.53354e-4 0.4857785 -0.901938 1.77564e-4 0.4318654 -0.9435926 0 -0.3311092 -0.9857175 0 -0.1684077 -0.9998662 0.001001656 -0.01632767 -0.9957159 0 0.09246617 -0.9659858 1.63441e-7 0.2585953 -0.2038578 0 -0.9790006 -0.364951 -2.48309e-7 -0.9310268 -0.4858212 0.001030802 -0.8740577 -0.5934295 5.04557e-7 -0.804886 -0.8577547 2.11564e-7 -0.5140594 -0.7198886 0.003529191 -0.6940807 -0.8445845 8.10545e-4 -0.5354217 0.00357151 5.04643e-4 -0.9999936 0.01632595 6.6487e-4 -0.9998666 0.2233062 0 -0.9747484 0.8740816 0 -0.4857793 0.9510044 0.003016471 -0.3091629 0.8513997 2.77233e-4 -0.5245175 0.7348485 -2.97829e-7 -0.6782313 0.5140613 0 -0.8577535 0.6099331 0.001820206 -0.7924509 0.3842175 0 -0.9232428 0.8577541 9.17751e-4 0.5140595 0.8960193 7.34375e-5 0.4440153 0.9998668 -1.12633e-4 0.01632779 0.9923701 0.001616775 0.1232845 0.9894559 -5.1946e-7 -0.1448343 0.4858219 8.85944e-4 0.8740574 0.6349576 -2.1555e-7 0.772547 0.7550036 -4.72608e-7 0.6557208 -0.4325131 0 0.9016278 -0.171653 0 0.9851576 -0.01632595 9.95142e-4 0.9998663 0.1015341 -1.17278e-4 0.994832 0.4244689 1.34658e-4 0.9054425 -0.1301662 -0.1933524 0.9724565 -0.1251549 -0.348496 0.9289171 -0.08710205 -0.7508545 0.6546991 -0.1295524 -0.02372795 0.9912887 -0.13138 -0.04952335 0.9900944 -0.1318175 -0.10182 0.9860309 -0.09861564 -0.001748621 0.9951241 -0.1172539 -0.004836678 0.9930902 -0.1255971 -0.01107472 0.9920195 0.005410909 -0.001146018 0.9999848 0.4046465 -0.1612291 -0.900148 0.3600392 -0.4895557 -0.7941707 -0.04224056 0 0.9991075 0.3288609 0 0.9443784 0.3288607 0 0.9443785 0.7269729 0 0.6866661 0.726973 0 0.6866661 0.9218999 0 0.3874281 0.9615725 0.001403748 0.2745478 0.9874811 0 0.1577373 0.9799366 0 -0.1993097 0.9799366 0 -0.1993097 0.7779116 0 -0.6283738 0.7779117 0 -0.6283738 0.4116862 0 -0.9113257 0.532584 -0.003041803 -0.8463718 0.6980854 -8.06652e-4 -0.7160141 0.1537575 -0.001431524 0.9881076 0.214794 -8.06418e-4 0.9766591 0.652295 -0.001431524 -0.7579639 0.6986488 -0.001246035 -0.7154637 0.6536214 0 -0.7568218 0.9172168 0 -0.3983885 0.9988089 0 0.04879474 0.9988089 0 0.04879474 0.8739988 0 0.4859282 0.5685951 0 0.8226176 0.5685951 0 0.8226177 0.2133831 0 0.9769686 0.1543999 -8.99715e-4 0.9880081 0.3057395 -0.001072227 0.9521147 0.7623608 -0.001072227 -0.6471514 0.2290846 -4.93403e-4 0.9734065 0.291839 -0.00197637 0.9564655 0.4188838 -8.41196e-7 0.9080399 0.5659875 -4.70382e-7 0.8244138 0.7159728 -0.001220881 0.6981272 0.7320165 -6.62341e-4 0.6812868 0.9162743 4.76141e-4 0.4005512 0.9615718 -0.001834213 0.2745478 0.990594 -1.43702e-7 0.1368345 0.9995228 -3.3076e-7 -0.0308929 0.9766458 -0.001399874 -0.2148513 0.966248 -4.01415e-4 -0.2576134 0.7784959 4.99388e-4 -0.6276496 0.7977148 -0.001129329 -0.603034 0 1 -6.19893e-5 0.9615736 0 0.2745475 0.9615734 0 0.2745482 0 -1 -6.45105e-5 -0.9615733 0 -0.2745485 -0.9615737 1.51818e-7 -0.2745472 0 1 -5.82313e-5 0 1 3.70099e-6 0.9615733 0 0.2745485 0.9615734 0 0.2745482 0.2745516 0 -0.9615724 0.2745481 0 -0.9615734 0.274548 0 -0.9615734 0.2745516 0 -0.9615725 -0.1819519 -0.001977384 0.9833055 -0.1819863 -0.001978933 0.9832991 -0.1856607 0.001776337 0.9826124 -0.1855758 -0.001895427 0.9826282 0 -1 -1.47147e-5 0.9615734 0 0.2745481 0.9615735 0 0.274548 0 1 1.86785e-6 -0.9615731 0 -0.2745493 -0.961575 0 -0.2745423</float_array>
          <technique_common>
            <accessor source="#Elevator-mesh-normals-array" count="719" stride="3">
              <param name="X" type="float"/>
              <param name="Y" type="float"/>
              <param name="Z" type="float"/>
            </accessor>
          </technique_common>
        </source>
        <vertices id="Elevator-mesh-vertices">
          <input semantic="POSITION" source="#Elevator-mesh-positions"/>
        </vertices>
        <triangles material="Material_001-material" count="874">
          <input semantic="VERTEX" source="#Elevator-mesh-vertices" offset="0"/>
          <input semantic="NORMAL" source="#Elevator-mesh-normals" offset="1"/>
          <p>0 0 1 0 2 0 3 1 4 1 5 1 6 2 7 2 8 2 9 3 10 3 8 3 8 4 10 4 6 4 6 5 10 5 2 5 6 6 2 6 11 6 2 7 1 7 12 7 13 8 11 8 14 8 14 9 11 9 2 9 14 10 2 10 15 10 15 11 2 11 12 11 15 12 12 12 16 12 16 13 12 13 17 13 16 14 17 14 18 14 18 15 17 15 19 15 18 16 19 16 1 16 1 17 19 17 20 17 1 18 20 18 12 18 9 19 21 19 22 19 8 20 3 20 9 20 9 21 3 21 5 21 9 22 5 22 21 22 21 23 5 23 23 23 22 24 24 24 9 24 9 25 24 25 25 25 9 26 25 26 10 26 10 27 25 27 26 27 10 28 26 28 2 28 2 29 26 29 27 29 2 30 27 30 0 30 0 31 28 31 1 31 1 32 28 32 29 32 1 33 29 33 18 33 18 34 29 34 30 34 18 35 30 35 31 35 32 36 29 36 28 36 32 37 33 37 29 37 29 38 33 38 34 38 29 39 34 39 30 39 34 40 35 40 30 40 30 41 35 41 36 41 30 41 36 41 37 41 37 42 36 42 38 42 37 41 38 41 39 41 39 43 38 43 40 43 39 41 40 41 41 41 41 44 40 44 42 44 41 41 42 41 43 41 32 41 28 41 44 41 45 41 43 41 42 41 45 41 42 41 46 41 46 45 42 45 47 45 46 46 47 46 48 46 48 47 47 47 49 47 48 48 49 48 50 48 33 41 32 41 51 41 51 49 32 49 44 49 51 41 44 41 52 41 52 50 44 50 50 50 52 51 50 51 53 51 53 41 50 41 49 41 54 52 55 52 23 52 23 53 55 53 56 53 23 54 56 54 57 54 57 55 58 55 23 55 23 56 58 56 59 56 23 57 59 57 21 57 21 58 59 58 60 58 21 59 60 59 61 59 61 60 62 60 21 60 21 61 62 61 63 61 21 62 63 62 64 62 65 63 66 63 64 63 64 64 66 64 22 64 64 65 22 65 21 65 65 66 67 66 66 66 66 67 67 67 68 67 66 68 68 68 69 68 69 69 70 69 66 69 66 70 70 70 71 70 66 71 71 71 72 71 72 72 71 72 73 72 73 73 74 73 72 73 72 74 74 74 75 74 72 75 75 75 76 75 76 76 75 76 77 76 76 77 77 77 78 77 78 78 77 78 79 78 78 79 79 79 80 79 80 80 79 80 81 80 80 81 81 81 82 81 81 82 83 82 82 82 82 83 83 83 84 83 82 84 84 84 85 84 85 85 84 85 86 85 85 86 86 86 87 86 87 87 86 87 88 87 87 88 88 88 89 88 89 89 88 89 90 89 89 90 90 90 54 90 54 91 90 91 91 91 54 92 91 92 55 92 92 93 93 93 94 93 92 94 94 94 95 94 95 95 94 95 96 95 95 96 96 96 97 96 97 97 96 97 98 97 97 98 98 98 99 98 100 99 101 99 102 99 102 100 101 100 103 100 102 101 103 101 104 101 104 102 103 102 105 102 104 103 105 103 106 103 106 104 105 104 107 104 107 105 105 105 66 105 107 106 66 106 72 106 24 107 22 107 66 107 99 108 108 108 97 108 97 109 108 109 109 109 97 110 109 110 110 110 111 111 112 111 113 111 114 112 50 112 115 112 115 113 50 113 111 113 115 114 111 114 116 114 116 115 111 115 113 115 50 116 44 116 111 116 111 117 44 117 97 117 111 118 97 118 112 118 112 119 97 119 110 119 24 120 66 120 25 120 25 121 66 121 105 121 25 122 105 122 26 122 26 123 105 123 103 123 26 124 103 124 27 124 101 125 92 125 103 125 103 126 92 126 95 126 103 127 95 127 27 127 27 128 95 128 97 128 27 129 97 129 0 129 0 130 97 130 44 130 0 131 44 131 28 131 117 41 118 41 119 41 119 41 118 41 106 41 4 41 120 41 121 41 121 41 120 41 122 41 121 132 122 132 123 132 123 133 122 133 117 133 123 41 117 41 124 41 124 134 117 134 119 134 118 135 125 135 106 135 106 136 125 136 126 136 106 41 126 41 104 41 104 137 126 137 127 137 104 138 127 138 128 138 128 41 127 41 129 41 128 139 129 139 130 139 130 140 129 140 131 140 130 141 131 141 132 141 132 142 131 142 133 142 132 41 133 41 3 41 3 41 133 41 134 41 3 143 134 143 4 143 4 41 134 41 135 41 4 144 135 144 120 144 136 145 137 145 138 145 138 146 137 146 139 146 138 147 139 147 140 147 140 147 139 147 8 147 140 148 8 148 141 148 141 147 8 147 7 147 141 149 7 149 142 149 142 150 7 150 143 150 142 151 143 151 144 151 144 147 143 147 145 147 144 152 145 152 146 152 146 153 145 153 147 153 146 154 147 154 148 154 148 155 147 155 149 155 148 156 149 156 150 156 150 157 149 157 151 157 150 147 151 147 152 147 152 147 151 147 100 147 152 147 100 147 153 147 153 158 100 158 102 158 153 159 102 159 154 159 154 147 102 147 155 147 154 147 155 147 136 147 136 160 155 160 137 160 156 161 157 161 158 161 158 162 157 162 159 162 158 41 159 41 160 41 160 163 159 163 94 163 160 41 94 41 161 41 161 41 94 41 93 41 161 164 93 164 162 164 162 41 93 41 163 41 162 165 163 165 164 165 164 41 163 41 165 41 164 41 165 41 166 41 166 41 165 41 167 41 166 41 167 41 168 41 168 166 167 166 169 166 168 41 169 41 170 41 170 41 169 41 171 41 170 41 171 41 172 41 172 41 171 41 13 41 172 167 13 167 173 167 173 168 13 168 14 168 173 169 14 169 174 169 174 41 14 41 175 41 174 170 175 170 156 170 156 41 175 41 157 41 176 147 177 147 178 147 178 171 177 171 179 171 178 147 179 147 180 147 180 147 179 147 181 147 180 147 181 147 182 147 182 172 181 172 183 172 182 147 183 147 184 147 184 147 183 147 98 147 184 147 98 147 185 147 185 173 98 173 96 173 185 174 96 174 186 174 186 175 96 175 187 175 186 176 187 176 188 176 188 147 187 147 189 147 188 147 189 147 190 147 190 177 189 177 191 177 190 147 191 147 192 147 192 147 191 147 15 147 192 147 15 147 193 147 193 178 15 178 16 178 193 179 16 179 194 179 194 147 16 147 195 147 194 147 195 147 196 147 196 147 195 147 176 147 196 147 176 147 178 147 102 180 104 180 155 180 155 181 104 181 128 181 155 182 128 182 137 182 137 183 128 183 130 183 137 184 130 184 139 184 139 185 130 185 132 185 139 186 132 186 8 186 8 187 132 187 3 187 96 188 94 188 187 188 187 189 94 189 159 189 187 190 159 190 189 190 189 191 159 191 157 191 189 192 157 192 191 192 191 193 157 193 175 193 191 194 175 194 15 194 15 195 175 195 14 195 193 196 36 196 192 196 192 197 36 197 35 197 192 198 35 198 190 198 190 199 35 199 34 199 190 200 34 200 188 200 188 201 34 201 33 201 188 202 33 202 186 202 186 203 33 203 51 203 186 204 51 204 185 204 185 205 51 205 52 205 185 206 52 206 184 206 184 206 52 206 53 206 184 207 53 207 182 207 182 208 53 208 49 208 182 209 49 209 180 209 180 210 49 210 47 210 180 211 47 211 178 211 178 212 47 212 42 212 178 213 42 213 196 213 196 214 42 214 40 214 196 215 40 215 194 215 194 216 40 216 38 216 194 217 38 217 193 217 193 218 38 218 36 218 141 219 172 219 140 219 140 220 172 220 173 220 140 221 173 221 138 221 138 222 173 222 174 222 138 223 174 223 136 223 136 224 174 224 156 224 136 225 156 225 154 225 154 226 156 226 158 226 154 227 158 227 153 227 153 228 158 228 160 228 153 229 160 229 152 229 152 230 160 230 161 230 152 231 161 231 150 231 150 232 161 232 162 232 150 233 162 233 148 233 148 234 162 234 164 234 148 235 164 235 146 235 146 236 164 236 166 236 146 237 166 237 144 237 144 214 166 214 168 214 144 238 168 238 142 238 142 239 168 239 170 239 142 240 170 240 141 240 141 241 170 241 172 241 134 242 133 242 62 242 59 243 135 243 60 243 60 244 135 244 134 244 60 245 134 245 61 245 61 246 134 246 62 246 129 247 65 247 131 247 131 248 65 248 64 248 131 249 64 249 133 249 133 250 64 250 63 250 133 251 63 251 62 251 70 252 69 252 127 252 127 253 69 253 68 253 127 254 68 254 129 254 129 255 68 255 67 255 129 256 67 256 65 256 70 257 127 257 71 257 71 258 127 258 126 258 71 259 126 259 73 259 73 260 126 260 74 260 74 261 126 261 125 261 74 262 125 262 75 262 118 263 79 263 125 263 125 264 79 264 77 264 125 265 77 265 75 265 86 266 84 266 117 266 117 267 84 267 83 267 117 268 83 268 118 268 118 269 83 269 81 269 118 270 81 270 79 270 86 271 117 271 88 271 88 272 117 272 122 272 88 273 122 273 90 273 120 274 55 274 122 274 122 275 55 275 91 275 122 276 91 276 90 276 59 277 58 277 135 277 135 278 58 278 57 278 135 279 57 279 120 279 120 280 57 280 56 280 120 281 56 281 55 281 50 282 114 282 48 282 48 283 114 283 115 283 48 284 115 284 116 284 116 285 113 285 48 285 48 286 113 286 112 286 48 287 112 287 110 287 110 288 109 288 48 288 48 289 109 289 108 289 48 290 108 290 99 290 16 291 18 291 37 291 37 292 18 292 31 292 37 293 31 293 30 293 16 294 37 294 195 294 195 295 37 295 39 295 195 296 39 296 176 296 176 297 39 297 41 297 176 298 41 298 177 298 177 299 41 299 43 299 177 300 43 300 179 300 43 301 45 301 179 301 179 302 45 302 46 302 179 303 46 303 181 303 181 304 46 304 48 304 181 305 48 305 183 305 183 306 48 306 99 306 183 307 99 307 98 307 11 308 13 308 171 308 101 309 100 309 151 309 163 310 93 310 92 310 101 311 151 311 92 311 143 312 7 312 6 312 92 313 151 313 163 313 163 314 151 314 149 314 163 315 149 315 165 315 165 316 149 316 147 316 165 317 147 317 167 317 167 318 147 318 145 318 167 319 145 319 169 319 169 320 145 320 143 320 169 321 143 321 171 321 171 322 143 322 6 322 171 323 6 323 11 323 5 324 4 324 121 324 72 325 76 325 107 325 107 326 76 326 119 326 107 327 119 327 106 327 23 328 5 328 54 328 54 329 5 329 121 329 54 330 121 330 89 330 89 331 121 331 123 331 124 332 85 332 123 332 123 333 85 333 87 333 123 334 87 334 89 334 76 335 78 335 119 335 119 336 78 336 80 336 119 337 80 337 124 337 124 338 80 338 82 338 124 339 82 339 85 339 12 147 197 147 17 147 17 147 197 147 198 147 17 340 198 340 19 340 19 341 198 341 199 341 19 41 199 41 20 41 20 342 199 342 200 342 20 343 200 343 12 343 12 344 200 344 197 344 201 345 202 345 203 345 203 346 202 346 204 346 205 347 201 347 206 347 206 348 201 348 203 348 205 349 197 349 201 349 201 350 197 350 200 350 201 351 200 351 202 351 202 352 200 352 199 352 202 353 199 353 207 353 207 354 199 354 198 354 207 355 198 355 205 355 205 356 198 356 197 356 204 357 208 357 203 357 203 358 208 358 209 358 203 359 209 359 206 359 206 360 209 360 210 360 211 361 212 361 213 361 213 362 212 362 214 362 210 41 211 41 206 41 206 41 211 41 213 41 206 41 213 41 205 41 205 41 213 41 207 41 212 363 211 363 209 363 209 364 211 364 210 364 214 147 212 147 208 147 208 365 212 365 209 365 202 366 207 366 204 366 204 367 207 367 213 367 204 368 213 368 208 368 208 369 213 369 214 369 215 370 216 370 217 370 217 371 216 371 218 371 219 372 220 372 218 372 221 373 222 373 223 373 223 374 222 374 224 374 223 375 224 375 225 375 226 376 227 376 228 376 229 377 230 377 224 377 231 378 232 378 222 378 222 379 232 379 233 379 222 380 233 380 224 380 224 381 233 381 234 381 224 382 234 382 229 382 230 383 229 383 235 383 235 384 229 384 232 384 235 385 232 385 228 385 228 386 232 386 231 386 228 387 231 387 226 387 236 388 237 388 238 388 238 389 237 389 239 389 238 390 239 390 240 390 240 391 239 391 216 391 240 392 216 392 241 392 241 393 216 393 215 393 219 394 218 394 242 394 242 395 218 395 216 395 242 396 216 396 243 396 243 397 216 397 239 397 243 398 239 398 244 398 237 399 226 399 239 399 239 400 226 400 231 400 239 401 231 401 244 401 244 402 231 402 222 402 244 403 222 403 245 403 245 404 222 404 221 404 245 405 221 405 246 405 246 147 221 147 247 147 248 147 249 147 250 147 248 147 250 147 251 147 251 406 250 406 252 406 251 407 252 407 253 407 253 147 252 147 254 147 253 408 254 408 223 408 254 409 255 409 223 409 223 410 255 410 256 410 223 147 256 147 221 147 221 411 256 411 257 411 221 412 257 412 247 412 246 413 247 413 258 413 258 414 247 414 259 414 258 415 259 415 260 415 259 416 261 416 260 416 260 417 261 417 262 417 260 147 262 147 263 147 263 147 262 147 264 147 263 418 264 418 265 418 265 419 264 419 266 419 265 147 266 147 267 147 267 420 266 420 250 420 267 147 250 147 249 147 268 421 269 421 270 421 270 422 269 422 271 422 270 423 271 423 272 423 272 424 271 424 273 424 272 425 273 425 274 425 274 426 273 426 275 426 274 427 275 427 276 427 276 428 275 428 277 428 276 429 277 429 278 429 279 430 280 430 281 430 281 431 280 431 276 431 281 432 276 432 282 432 282 433 276 433 278 433 279 434 283 434 280 434 280 435 283 435 284 435 280 436 284 436 285 436 285 437 286 437 280 437 280 438 286 438 287 438 280 439 287 439 220 439 220 440 287 440 218 440 218 441 287 441 288 441 218 442 288 442 289 442 289 443 290 443 218 443 218 444 290 444 291 444 218 445 291 445 217 445 217 446 291 446 292 446 217 447 292 447 293 447 293 448 294 448 217 448 217 449 294 449 295 449 217 450 295 450 296 450 295 451 297 451 296 451 296 452 297 452 298 452 296 453 298 453 299 453 299 454 298 454 300 454 299 455 300 455 301 455 301 456 300 456 302 456 301 457 302 457 303 457 303 458 302 458 304 458 303 459 304 459 268 459 268 460 304 460 305 460 268 461 305 461 269 461 220 462 306 462 280 462 280 463 306 463 307 463 280 464 307 464 276 464 308 465 309 465 310 465 311 466 312 466 313 466 314 467 315 467 316 467 316 468 315 468 317 468 316 469 317 469 318 469 319 470 307 470 320 470 320 471 307 471 306 471 320 472 306 472 310 472 310 473 306 473 321 473 310 474 321 474 308 474 308 475 321 475 313 475 308 476 313 476 322 476 322 477 313 477 312 477 322 478 312 478 323 478 314 479 316 479 324 479 324 480 316 480 325 480 324 481 325 481 326 481 327 482 328 482 325 482 325 483 328 483 329 483 325 484 329 484 326 484 244 485 313 485 243 485 243 486 313 486 321 486 243 487 321 487 242 487 242 488 321 488 306 488 242 489 306 489 219 489 219 490 306 490 220 490 244 491 245 491 313 491 313 492 245 492 316 492 313 493 316 493 311 493 311 494 316 494 318 494 311 495 318 495 330 495 245 496 246 496 316 496 316 497 246 497 258 497 316 498 258 498 325 498 325 499 258 499 260 499 325 500 260 500 327 500 241 147 331 147 332 147 332 147 331 147 333 147 319 501 334 501 335 501 335 502 334 502 336 502 335 147 336 147 337 147 337 503 336 503 333 503 337 504 333 504 338 504 338 147 333 147 331 147 332 147 339 147 241 147 241 505 339 505 340 505 241 147 340 147 240 147 240 506 340 506 341 506 240 507 341 507 342 507 342 508 341 508 343 508 342 147 343 147 344 147 344 509 343 509 345 509 344 510 345 510 346 510 346 511 345 511 347 511 346 147 347 147 320 147 320 512 347 512 348 512 320 513 348 513 319 513 319 147 348 147 349 147 319 514 349 514 334 514 350 515 351 515 352 515 352 516 351 516 353 516 352 41 353 41 354 41 354 517 353 517 310 517 354 41 310 41 355 41 355 518 310 518 309 518 355 519 309 519 356 519 356 41 309 41 357 41 356 520 357 520 358 520 358 41 357 41 359 41 358 521 359 521 360 521 360 41 359 41 361 41 360 41 361 41 362 41 362 522 361 522 363 522 362 41 363 41 364 41 364 523 363 523 365 523 364 524 365 524 366 524 366 525 365 525 236 525 366 41 236 41 367 41 367 41 236 41 238 41 367 526 238 526 368 526 368 41 238 41 369 41 368 41 369 41 350 41 350 527 369 527 351 527 370 528 371 528 372 528 372 529 371 529 373 529 372 530 373 530 374 530 374 531 373 531 228 531 374 147 228 147 375 147 375 147 228 147 227 147 375 532 227 532 376 532 376 147 227 147 377 147 376 147 377 147 378 147 378 533 377 533 379 533 378 147 379 147 380 147 380 534 379 534 381 534 380 535 381 535 382 535 382 147 381 147 383 147 382 147 383 147 384 147 384 536 383 536 385 536 384 147 385 147 386 147 386 147 385 147 323 147 386 147 323 147 387 147 387 147 323 147 312 147 387 147 312 147 388 147 388 537 312 537 389 537 388 538 389 538 370 538 370 539 389 539 371 539 390 540 391 540 392 540 392 541 391 541 393 541 392 41 393 41 394 41 394 542 393 542 395 542 394 41 395 41 396 41 396 41 395 41 397 41 396 543 397 543 398 543 398 544 397 544 230 544 398 545 230 545 399 545 399 546 230 546 235 546 399 547 235 547 400 547 400 41 235 41 401 41 400 41 401 41 402 41 402 548 401 548 403 548 402 41 403 41 404 41 404 549 403 549 405 549 404 41 405 41 406 41 406 550 405 550 311 550 406 551 311 551 407 551 407 41 311 41 330 41 407 41 330 41 408 41 408 41 330 41 409 41 408 552 409 552 410 552 410 553 409 553 390 553 410 41 390 41 392 41 238 554 240 554 369 554 369 555 240 555 342 555 369 556 342 556 351 556 351 184 342 184 344 184 351 557 344 557 353 557 353 182 344 182 346 182 353 558 346 558 310 558 310 559 346 559 320 559 235 560 228 560 401 560 401 561 228 561 373 561 401 562 373 562 403 562 403 563 373 563 371 563 403 564 371 564 405 564 405 564 371 564 389 564 405 565 389 565 311 565 311 566 389 566 312 566 398 567 255 567 396 567 396 217 255 217 254 217 396 568 254 568 394 568 394 569 254 569 252 569 394 570 252 570 392 570 392 570 252 570 250 570 392 212 250 212 410 212 410 571 250 571 266 571 410 572 266 572 408 572 408 573 266 573 264 573 408 574 264 574 407 574 407 575 264 575 262 575 407 206 262 206 406 206 406 229 262 229 261 229 406 227 261 227 404 227 404 576 261 576 259 576 404 577 259 577 402 577 402 578 259 578 247 578 402 579 247 579 400 579 400 580 247 580 257 580 400 581 257 581 399 581 399 582 257 582 256 582 399 583 256 583 398 583 398 196 256 196 255 196 366 567 375 567 364 567 364 584 375 584 376 584 364 585 376 585 362 585 362 586 376 586 378 586 362 570 378 570 360 570 360 213 378 213 380 213 360 587 380 587 358 587 358 587 380 587 382 587 358 588 382 588 356 588 356 589 382 589 384 589 356 590 384 590 355 590 355 591 384 591 386 591 355 592 386 592 354 592 354 229 386 229 387 229 354 228 387 228 352 228 352 593 387 593 388 593 352 594 388 594 350 594 350 578 388 578 370 578 350 595 370 595 368 595 368 580 370 580 372 580 368 596 372 596 367 596 367 582 372 582 374 582 367 597 374 597 366 597 366 598 374 598 375 598 339 599 295 599 294 599 339 600 294 600 340 600 295 601 339 601 297 601 297 602 339 602 332 602 297 603 332 603 298 603 305 604 304 604 333 604 333 605 304 605 302 605 333 606 302 606 332 606 332 607 302 607 300 607 332 608 300 608 298 608 277 609 275 609 334 609 334 610 275 610 273 610 334 611 273 611 336 611 336 612 273 612 271 612 336 613 271 613 333 613 333 614 271 614 269 614 333 615 269 615 305 615 277 616 334 616 278 616 278 617 334 617 349 617 278 618 349 618 282 618 347 619 285 619 348 619 348 620 285 620 284 620 284 621 283 621 348 621 348 622 283 622 279 622 348 623 279 623 349 623 349 624 279 624 281 624 349 625 281 625 282 625 343 626 288 626 345 626 345 627 288 627 287 627 345 628 287 628 347 628 347 629 287 629 286 629 347 630 286 630 285 630 341 631 290 631 343 631 343 632 290 632 289 632 343 633 289 633 288 633 294 634 293 634 340 634 340 635 293 635 292 635 340 636 292 636 341 636 341 637 292 637 291 637 341 638 291 638 290 638 329 639 328 639 263 639 263 640 328 640 327 640 263 641 327 641 260 641 314 642 324 642 263 642 263 643 324 643 326 643 263 644 326 644 329 644 318 645 317 645 263 645 263 646 317 646 315 646 263 647 315 647 314 647 409 648 330 648 318 648 224 649 253 649 225 649 225 650 253 650 223 650 318 651 263 651 409 651 409 652 263 652 265 652 409 653 265 653 390 653 390 654 265 654 267 654 390 655 267 655 391 655 391 656 267 656 249 656 391 657 249 657 393 657 249 658 248 658 393 658 393 659 248 659 251 659 393 660 251 660 395 660 395 661 251 661 253 661 395 662 253 662 397 662 397 663 253 663 224 663 397 664 224 664 230 664 237 665 236 665 365 665 322 666 323 666 385 666 357 667 309 667 308 667 377 668 227 668 226 668 237 669 365 669 226 669 226 670 365 670 377 670 377 321 365 321 363 321 377 671 363 671 379 671 379 672 363 672 361 672 379 673 361 673 381 673 381 674 361 674 359 674 381 316 359 316 383 316 383 675 359 675 357 675 383 676 357 676 385 676 385 677 357 677 308 677 385 678 308 678 322 678 307 679 319 679 335 679 331 680 241 680 215 680 276 681 307 681 274 681 274 682 307 682 335 682 274 683 335 683 272 683 272 684 335 684 270 684 270 685 335 685 337 685 270 686 337 686 268 686 268 687 337 687 303 687 303 688 337 688 338 688 303 689 338 689 301 689 301 690 338 690 299 690 299 691 338 691 331 691 299 692 331 692 296 692 296 693 331 693 215 693 296 694 215 694 217 694 411 41 232 41 412 41 412 695 232 695 229 695 412 696 229 696 413 696 413 697 229 697 234 697 413 698 234 698 414 698 414 147 234 147 233 147 414 699 233 699 411 699 411 700 233 700 232 700 415 701 416 701 417 701 417 702 416 702 418 702 416 703 419 703 418 703 418 704 419 704 420 704 421 353 412 353 415 353 415 354 412 354 413 354 415 705 413 705 416 705 416 356 413 356 414 356 416 706 414 706 419 706 419 707 414 707 411 707 419 708 411 708 421 708 421 352 411 352 412 352 420 709 422 709 418 709 418 710 422 710 423 710 418 711 423 711 417 711 417 712 423 712 424 712 425 362 426 362 427 362 427 362 426 362 428 362 419 713 421 713 420 713 420 147 421 147 428 147 420 147 428 147 422 147 422 147 428 147 426 147 426 714 425 714 422 714 422 715 425 715 423 715 425 41 427 41 423 41 423 716 427 716 424 716 424 717 427 717 417 717 417 369 427 369 428 369 417 718 428 718 415 718 415 367 428 367 421 367</p>
        </triangles>
      </mesh>
    </geometry>
  </library_geometries>
  <library_visual_scenes>
    <visual_scene id="Scene" name="Scene">
      <node id="Elevator" name="Elevator" type="NODE">
        <matrix sid="transform">1 0 0 0 0 1 0 0 0 0 1 0 0 0 0 1</matrix>
        <instance_geometry url="#Elevator-mesh" name="Elevator">
          <bind_material>
            <technique_common>
              <instance_material symbol="Material_001-material" target="#Material_001-material"/>
            </technique_common>
          </bind_material>
        </instance_geometry>
      </node>
    </visual_scene>
  </library_visual_scenes>
  <scene>
    <instance_visual_scene url="#Scene"/>
  </scene>
</COLLADA>