<?xml version="1.0" encoding="utf-8"?>
<COLLADA xmlns="http://www.collada.org/2005/11/COLLADASchema" version="1.4.1" xmlns:xsi="http://www.w3.org/2001/XMLSchema-instance">
  <asset>
    <contributor>
      <author>Blender User</author>
      <authoring_tool>Blender 3.6.23 commit date:2025-06-16, commit time:11:52, hash:e467db79ca8c</authoring_tool>
    </contributor>
    <created>2026-08-13T12:22:51</created>
    <modified>2026-08-13T12:22:51</modified>
    <unit name="meter" meter="1"/>
    <up_axis>Z_UP</up_axis>
  </asset>
  <library_effects>
    <effect id="Material_001-effect">
      <profile_COMMON>
        <technique sid="common">
          <lambert>
            <emission>
              <color sid="emission">0 0 0 1</color>
            </emission>
            <diffuse>
              <color sid="diffuse">1 1 1 1</color>
            </diffuse>
            <index_of_refraction>
              <float sid="ior">1.45</float>
            </index_of_refraction>
          </lambert>
        </technique>
      </profile_COMMON>
    </effect>
  </library_effects>
  <library_images/>
  <library_materials>
    <material id="Material_001-material" name="Material.001">
      <instance_effect url="#Material_001-effect"/>
    </material>
  </library_materials>
  <library_geometries>
    <geometry id="Left_rudder-mesh" name="Left_rudder">
      <mesh>
        <source id="Left_rudder-mesh-positions">
          <float_array id="Left_rudder-mesh-positions-array" count="570">-0.03531557 -0.001208603 0.03454667 -0.01578843 -0.00259751 0.002028882 -0.01758813 -0.002465426 0.0345121 -1.08965e-4 -0.003389775 0.001998305 -4.84408e-5 -0.003308475 0.03447788 -1.11592e-4 -0.003392636 6.00219e-4 -0.002049267 -0.003311276 6.03996e-4 -0.002039551 -0.003328144 -0.008596003 -0.01408147 -0.002723455 -0.03390473 -1.28913e-4 -0.003410458 -0.008599758 -1.76872e-4 -0.003451764 -0.03393185 -0.002016305 -0.003397226 -0.05772948 -0.00237596 -0.003366291 -0.04596763 -0.002384364 -0.003371119 -0.05036765 -2.22216e-4 -0.003482282 -0.05773299 -0.01179856 -0.002865731 -0.04594928 -0.01180708 -0.002868115 -0.05034929 -0.01277905 -0.002820312 -0.06665021 -3.00004e-4 -0.003520846 -0.09832179 -2.39802e-4 -0.003492355 -0.06693297 -0.002016484 -0.003407061 -0.06692951 -0.01174193 -0.002898216 -0.0982995 -0.01156061 -0.002911984 -0.1045998 -3.12171e-4 -0.003525793 -0.1046218 -0.03537887 -0.001208603 0.002067029 -0.0354489 -0.001208603 -0.03386306 -0.03551268 -0.001208603 -0.06660586 -0.03557437 -0.001208603 -0.09825307 -0.03558665 -0.001208603 -0.1045531 -1.14478e-4 -0.003308117 6.00225e-4 -2.73938e-4 0.003292798 0.03447836 -3.39953e-4 0.0032925 6.00664e-4 -3.40016e-4 0.003374159 0.001998782 -3.42839e-4 0.00337702 6.0067e-4 -0.002244591 0.003270447 -0.06692904 -4.77863e-4 0.003476738 -0.06693249 -5.40009e-4 0.003505229 -0.09832131 -5.52517e-4 0.003510177 -0.1046213 -0.01173287 0.00213021 -0.1045995 -0.01191276 0.002103328 -0.09829914 -0.01592892 0.001513779 0.00202912 -0.01771521 0.001254916 0.03451234 -4.1216e-4 0.003436207 -0.03393137 -4.59589e-4 0.003466725 -0.05773252 -0.01423466 0.001760721 -0.03390443 -0.002243697 0.00325942 -0.05772906 -0.01294207 0.001950621 -0.06664985 -0.00227046 0.003163635 6.04427e-4 -3.61379e-4 0.003394842 -0.008599281 -0.002261936 0.003182351 -0.008595585 0.001568496 5.8031e-5 -0.06693649 0.001495063 5.8031e-5 -0.1046253 0.001369893 -7.99241e-4 -0.06693613 0.00129646 -7.99241e-4 -0.1046249 7.69344e-4 -0.001442313 -0.06693494 6.95892e-4 -0.001442313 -0.1046237 -7.2405e-5 -0.00169897 -0.06693327 -1.45857e-4 -0.00169897 -0.1046221 -9.29705e-4 -0.001500368 -0.0669316 -0.001003146 -0.001500368 -0.1046205 -0.001572787 -8.99763e-4 -0.06693035 -0.00164622 -8.99763e-4 -0.1046192 -0.001829385 -5.80413e-5 -0.06692987 -0.001902878 -5.80413e-5 -0.1046187 -0.001630783 7.99245e-4 -0.06693029 -0.001704275 7.99245e-4 -0.1046191 -0.001030206 0.001442313 -0.06693142 -0.001103639 0.001442313 -0.1046202 -1.88478e-4 0.00169897 -0.06693309 -2.6193e-4 0.00169897 -0.1046219 6.68822e-4 0.001500368 -0.06693476 5.95369e-4 0.001500368 -0.1046236 0.001311898 8.99767e-4 -0.06693601 0.001238405 8.99767e-4 -0.1046248 -4.71569e-4 0.0032925 -0.06693249 -5.45022e-4 0.0032925 -0.1046214 0.001052021 0.003091752 -0.06693547 9.78583e-4 0.003091752 -0.1046243 0.002320766 0.002224564 -0.06693798 0.002247273 0.002224564 -0.1046268 0.003061175 8.77876e-4 -0.06693941 0.002987742 8.77876e-4 -0.1046282 0.003113687 -6.58045e-4 -0.06693953 0.003040194 -6.58045e-4 -0.1046283 0.002466857 -0.002052068 -0.06693828 0.002393364 -0.002052068 -0.1046271 0.001260221 -0.003003835 -0.06693589 0.001186788 -0.003003835 -0.1046247 -2.46095e-4 -0.003308117 -0.06693297 -3.19547e-4 -0.003308117 -0.1046218 -0.003424406 -0.002056479 -0.05772674 -0.003442287 -0.002056479 -0.06692671 -0.0040102 -1.33148e-4 -0.0577256 -0.004028141 -1.33148e-4 -0.06692558 -0.003556966 0.00182569 -0.0577265 -0.003574907 0.00182569 -0.06692647 -2.28165e-4 -0.003308117 -0.05773299 -4.53639e-4 0.0032925 -0.05773252 -0.001554846 -8.99763e-4 -0.05773037 6.86752e-4 0.001500368 -0.05773478 -1.70548e-4 0.00169897 -0.05773311 -0.001012265 0.001442313 -0.05773144 -0.001612901 7.99245e-4 -0.05773025 -0.001811444 -5.80413e-5 -0.05772989 0.001586437 5.8031e-5 -0.05773651 0.001329839 8.99767e-4 -0.05773603 0.002338707 0.002224564 -0.057738 0.001069962 0.003091752 -0.0577355 -9.11775e-4 -0.001500368 -0.05773162 -5.4475e-5 -0.00169897 -0.05773329 0.001278162 -0.003003835 -0.05773591 7.87274e-4 -0.001442313 -0.05773496 0.002484798 -0.002052068 -0.05773824 0.001387834 -7.99241e-4 -0.05773609 0.003131568 -6.58045e-4 -0.05773949 0.003079116 8.77876e-4 -0.05773943 -0.003352224 -0.001988232 6.06535e-4 -0.003370165 -0.001988232 -0.00859344 -0.003896534 -1.33148e-4 6.07596e-4 -0.003914415 -1.33148e-4 -0.008592367 -0.003480076 0.00175476 6.06784e-4 -0.003498017 0.00175476 -0.008593201 -0.001697778 -5.80413e-5 6.03311e-4 -0.001499176 7.99245e-4 6.02924e-4 -8.98611e-4 0.001442313 6.01753e-4 -5.68613e-5 0.00169897 6.00113e-4 8.00439e-4 0.001500368 5.98442e-4 -0.00144118 -8.99763e-4 6.02811e-4 0.001700162 5.8031e-5 5.96688e-4 0.001443505 8.99767e-4 5.97188e-4 0.002452373 0.002224564 5.95222e-4 0.001183629 0.003091752 5.97695e-4 -7.98089e-4 -0.001500368 6.01557e-4 5.92117e-5 -0.00169897 5.99886e-4 0.001391828 -0.003003835 5.97289e-4 9.00961e-4 -0.001442313 5.98246e-4 0.002598464 -0.002052068 5.94938e-4 0.00150156 -7.99241e-4 5.97075e-4 0.003245294 -6.58045e-4 5.93677e-4 0.003192842 8.77876e-4 5.93779e-4 -3.57883e-4 0.0032925 -0.008599281 -7.47913e-5 0.00169897 -0.008599877 0.001165688 0.003091752 -0.008602261 7.82509e-4 0.001500368 -0.008601546 0.002434432 0.002224564 -0.008604764 0.001425564 8.99767e-4 -0.008602797 0.003174901 8.77876e-4 -0.008606195 0.001682221 5.8031e-5 -0.008603274 -1.32408e-4 -0.003308117 -0.008599758 4.12817e-5 -0.00169897 -0.008600056 -8.16019e-4 -0.001500368 -0.008598387 8.83031e-4 -0.001442313 -0.008601725 0.001373887 -0.003003835 -0.008602678 0.001483619 -7.99241e-4 -0.008602857 0.002580523 -0.002052068 -0.008605003 0.003227353 -6.58045e-4 -0.008606255 -0.001459062 -8.99763e-4 -0.008597135 -0.001715719 -5.80413e-5 -0.008596658 -0.001517117 7.99245e-4 -0.008597016 -9.16541e-4 0.001442313 -0.008598208 0.001766145 5.8031e-5 0.03447437 0.001567542 -7.99241e-4 0.03447479 9.66986e-4 -0.001442313 0.03447592 1.25237e-4 -0.00169897 0.03447759 -7.32064e-4 -0.001500368 0.03447926 -0.001375138 -8.99763e-4 0.03448051 -0.001631736 -5.80413e-5 0.03448098 -0.001433134 7.99245e-4 0.03448063 -8.32586e-4 0.001442313 0.03447943 9.16359e-6 0.00169897 0.03447777 8.66463e-4 0.001500368 0.0344761 0.001509547 8.99767e-4 0.03447484 0.00145787 -0.003003835 0.03447496 0.002664506 -0.002052068 0.03447264 0.003311276 -6.58045e-4 0.03447139 0.003258824 8.77876e-4 0.03447145 0.002518415 0.002224564 0.03447288 0.00124967 0.003091752 0.03447538 -0.01172059 -0.005399882 -0.05034947 -0.002326011 -0.005078971 -0.05036777 -0.002317428 -0.005078971 -0.04596775 -0.01171201 -0.005399882 -0.04594945 -0.002924561 -0.005099475 -0.0497666 -0.002918303 -0.005099475 -0.0465666 -0.01111346 -0.005379438 -0.04655063 -0.01111966 -0.005379438 -0.04975062 -0.01128411 -3.82363e-4 -0.04655027 -0.01129037 -3.82363e-4 -0.04975026 -0.00308901 -1.02424e-4 -0.04656624 -0.003095209 -1.02424e-4 -0.04976624</float_array>
          <technique_common>
            <accessor source="#Left_rudder-mesh-positions-array" count="190" stride="3">
              <param name="X" type="float"/>
              <param name="Y" type="float"/>
              <param name="Z" type="float"/>
            </accessor>
          </technique_common>
        </source>
        <source id="Left_rudder-mesh-normals">
          <float_array id="Left_rudder-mesh-normals-array" count="1164">-0.0707184 -0.9974964 1.37499e-4 -0.05046123 -0.9987253 0.00126481 -0.04800575 -0.9988437 0.002588212 -0.0419448 -0.9991177 0.002132534 -0.05043166 -0.9986299 0.01397013 -0.05169773 -0.9986612 0.001778423 -0.05228459 -0.9986318 0.001017093 -0.04304581 -0.9990674 -0.00338906 -0.05230414 -0.9986297 0.001727581 -0.04744791 -0.9988731 0.00117588 -0.04735213 -0.9988777 0.00117886 -0.04631668 -0.9989259 0.00136888 -0.05304604 -0.9985888 0.002600848 -0.05230385 -0.9986295 0.001881122 -0.05875599 -0.9982722 6.53992e-4 -0.05913794 -0.9982497 6.01017e-4 -0.04794824 -0.9988494 9.97602e-4 -0.0533024 -0.998578 8.82305e-4 -0.0537557 -0.9985542 2.79148e-4 -0.05440765 -0.9985182 0.001068055 -0.05441778 -0.9985181 6.74315e-4 -0.05433124 -0.9985228 6.47384e-4 -0.05433124 -0.9985228 6.11769e-4 -0.05448919 -0.9985141 8.96333e-4 -0.07071787 -0.9974964 1.37834e-4 -0.07071787 -0.9974964 1.37831e-4 -0.07071721 -0.9974965 1.37481e-4 -0.07071721 -0.9974965 1.37826e-4 -0.07071787 -0.9974964 1.3821e-4 -0.07071781 -0.9974964 1.3782e-4 -0.07071757 -0.9974964 1.37662e-4 -0.07071757 -0.9974964 1.37797e-4 -0.07071751 -0.9974965 1.37901e-4 0.9994152 0.03413915 -0.00194776 0.9994153 0.03413909 -0.00194776 0.9994152 0.03413981 -0.00194776 0.9994152 0.03413897 -0.00194776 -0.1159964 0.9932491 0.001130223 -0.1225001 0.9924682 7.37197e-4 -0.1160526 0.9932419 0.001533985 -0.1386212 0.9903455 2.70162e-4 -0.120328 0.9927331 0.001512467 -0.115397 0.9933097 0.004404664 -0.122197 0.9925054 9.31361e-4 -0.1224181 0.992478 0.001200556 -0.1224284 0.992477 8.06869e-4 -0.1223422 0.9924877 7.79954e-4 -0.1223419 0.9924875 0.001026153 -0.1100254 0.9939262 0.002265334 -0.111111 0.9938064 0.001843392 -0.1203287 0.9927335 0.001159667 -0.1218889 0.9925419 0.001908421 -0.1198013 0.9927973 0.00117433 -0.11846 0.9928587 0.014104 -0.1184932 0.9929512 0.002727329 -0.1386207 0.9903456 2.69869e-4 -0.1386207 0.9903456 2.70197e-4 -0.1386207 0.9903456 2.70172e-4 -0.1386207 0.9903455 2.7055e-4 -0.1386212 0.9903455 2.70152e-4 -0.1386213 0.9903454 2.69971e-4 -0.1386211 0.9903455 2.70169e-4 -0.1386208 0.9903456 2.67867e-4 -0.1386201 0.9903457 2.70156e-4 -0.9741983 0.2256861 0.001898586 -0.9741982 0.2256867 0.001898586 -0.7308496 0.6825371 0.001424312 -0.7308496 0.6825371 0.001424312 -0.2916453 0.9565265 5.68391e-4 -0.2916451 0.9565265 5.68398e-4 0.2256934 0.9741983 -4.39864e-4 0.2256934 0.9741984 -4.3985e-4 0.6825708 0.7308183 -0.001330256 0.6825707 0.7308184 -0.001330256 0.9565269 0.2916384 -0.001864135 0.9565268 0.2916386 -0.001864135 0.9741991 -0.2256823 -0.001898586 0.9741992 -0.2256821 -0.001898586 0.7308496 -0.6825371 -0.001424312 0.7308496 -0.682537 -0.001424312 0.2916296 -0.9565312 -5.68352e-4 0.2916295 -0.9565312 -5.68366e-4 -0.2256774 -0.974202 4.39825e-4 -0.2256774 -0.974202 4.39832e-4 -0.6825708 -0.7308183 0.001330256 -0.6825708 -0.7308184 0.001330256 -0.9565282 -0.2916341 0.001864194 -0.9565281 -0.2916346 0.001864194 0.9994152 0.03413897 -0.00194776 0.9994153 0.03413873 -0.00194776 0.9994059 0.03441333 -0.001956999 0.1306502 0.9914284 -2.5462e-4 0.1306501 0.9914285 -2.54628e-4 0.5642897 0.8255761 -0.001099705 0.5642894 0.8255763 -0.001099705 0.8762801 0.4817991 -0.001707792 0.8762803 0.4817989 -0.001707792 0.9994153 0.03413897 -0.00194776 0.9994152 0.03413939 -0.00194776 0.907113 -0.4208835 -0.001767873 0.9071128 -0.4208837 -0.001767873 0.6193102 -0.7851455 -0.001206934 0.6193104 -0.7851455 -0.001206934 0.1980087 -0.9802002 -3.8591e-4 0.1980086 -0.9802003 -3.85893e-4 0.9994245 0.03386598 -0.001956999 0.9994152 0.03413927 -0.00194776 0.9994152 0.03413927 -0.00194776 0.6895844 0.724205 -7.87279e-4 0.6876926 0.7260009 -0.00134021 0.9566102 0.2913652 -0.001864314 0.9566102 0.2913652 -0.001864314 0.9742631 -0.2254061 -0.001898705 0.9742631 -0.225406 -0.001898705 0.7373948 -0.6754605 -0.001437067 0.7356315 -0.6773815 -8.82596e-4 -0.001947581 -2.43154e-6 -0.9999981 -0.001954436 1.52166e-6 -0.9999982 -0.001930773 -2.39183e-6 -0.9999982 -0.001949489 -1.28141e-7 -0.9999981 -0.001951217 -1.38781e-6 -0.9999982 -0.001952528 -6.05851e-7 -0.9999982 -0.001944005 1.57579e-7 -0.9999982 -0.001951396 -6.96741e-7 -0.9999982 -0.001949608 -1.53623e-6 -0.9999982 -0.001940965 7.26149e-7 -0.9999982 -0.001954555 1.31768e-7 -0.9999981 -0.00194931 -5.57777e-7 -0.9999982 -0.00194931 3.38246e-6 -0.9999981 -0.001933395 -1.8149e-7 -0.9999982 -0.001991868 -8.19921e-6 -0.999998 -0.001943111 0 -0.9999982 -0.001952946 3.65246e-7 -0.9999981 -0.001915812 2.6437e-6 -0.9999982 -0.001948833 1.72803e-6 -0.9999981 -0.001951575 2.03576e-6 -0.9999981 -0.001951038 -4.21922e-7 -0.9999982 -0.00194633 5.28061e-7 -0.9999982 -0.001951277 8.04297e-7 -0.9999982 -0.001941382 8.20766e-7 -0.9999982 -0.001949369 -5.7887e-7 -0.9999982 -0.001943826 -1.07388e-6 -0.9999982 -0.001957118 1.24391e-6 -0.9999981 0.001950204 -1.42714e-5 0.9999981 0.001952767 3.93952e-7 0.9999981 0.001945436 6.49526e-7 0.9999982 0.001947283 3.86603e-6 0.9999982 0.001949429 4.11835e-6 0.9999982 0.001936316 1.46147e-6 0.9999982 0.001957178 -7.77483e-7 0.9999982 0.001949369 -7.18459e-6 0.9999981 0.001943707 -1.72811e-6 0.9999982 0.001955151 -2.88198e-6 0.9999982 0.001941442 1.80728e-6 0.9999982 0.00197339 1.16383e-6 0.9999981 0.001947224 9.58466e-7 0.9999982 0.001957893 2.65143e-7 0.9999981 0.001945972 -5.29572e-7 0.9999981 0.001937627 -1.39046e-6 0.9999982 0.001941919 9.81749e-7 0.9999982 0.00195378 -1.4512e-5 0.9999982 0.001951217 9.84264e-7 0.9999982 0.001955151 -1.43289e-6 0.9999982 0.001956462 2.77551e-6 0.9999982 0.001941561 9.97188e-7 0.9999982 0.001941144 -1.99089e-6 0.9999982 0.00196433 0 0.9999981 0.001945197 -1.05801e-6 0.9999982 0.001963257 -1.32922e-6 0.9999981 0.001942396 -2.06571e-6 0.9999982 0.7125049 0.701667 -5.34909e-4 0.7095791 0.7046245 -0.001382887 0.9595479 0.2815391 -0.001870036 0.9595477 0.2815398 -0.001870036 0.9765233 -0.2154031 -0.001903116 0.9765235 -0.2154025 -0.001903116 0.7587231 -0.6514117 -0.001478672 0.7560091 -0.6545609 -6.33948e-4 -0.001948773 0 -0.9999981 -0.001948833 -4.33764e-7 -0.9999981 -0.001948952 -4.29219e-7 -0.9999982 -0.001948833 0 -0.9999982 -0.001948893 0 -0.9999981 -0.001948893 0 -0.9999981 -0.001948952 0 -0.9999982 -0.001948833 0 -0.9999982 -0.001948893 0 -0.9999982 -0.001948833 0 -0.9999981 -0.001948893 0 -0.9999982 -0.001948952 0 -0.9999981 -0.001948952 0 -0.9999982 -0.001948952 0 -0.9999981 -0.001948595 0 -0.9999982 -0.001948833 0 -0.9999982 -0.001948893 0 -0.9999982 -0.001949071 0 -0.9999982 -0.001948714 0 -0.9999981 -0.001948833 0 -0.9999981 -0.001948893 0 -0.9999981 -0.001948952 0 -0.9999982 -0.001948833 0 -0.9999981 -0.001948893 0 -0.9999982 -0.001948833 0 -0.9999982 -0.001948833 0 -0.9999982 -0.001948952 0 -0.9999981 0.001949906 -6.20463e-6 0.9999981 0.001949787 2.71772e-7 0.9999982 0.001948535 2.04709e-7 0.9999981 0.001948356 0 0.9999982 0.001949012 0 0.9999982 0.001946926 -2.38654e-7 0.9999982 0.001950025 -2.69537e-7 0.9999982 0.001948714 0 0.9999981 0.001948177 -2.62867e-7 0.9999981 0.00195235 -3.45797e-7 0.9999982 0.001948356 1.24888e-7 0.9999981 0.001947283 -1.74827e-7 0.9999981 0.001948654 -2.40138e-7 0.9999982 0.001951754 2.65143e-7 0.9999982 0.001946687 -2.10064e-7 0.9999981 0.00194776 4.78974e-7 0.9999982 0.001947581 -5.93648e-7 0.9999981 0.001952171 2.90926e-6 0.9999981 0.001949012 0 0.9999981 0.001948118 -2.68763e-7 0.9999982 0.001948118 -6.65832e-7 0.9999982 0.00194931 0 0.9999981 0.001947999 2.79835e-7 0.9999981 0.001949071 4.2246e-7 0.9999981 0.001948237 -1.97396e-7 0.9999981 0.001950025 0 0.9999981 0.001947104 -5.38745e-7 0.9999981 -0.9741982 0.2256864 0.001898586 -0.9741982 0.2256866 0.001898586 -0.7308499 0.6825368 0.001424312 -0.7308496 0.6825371 0.001424312 -0.2916452 0.9565265 5.68391e-4 -0.2916452 0.9565265 5.68396e-4 0.2256935 0.9741984 -4.39858e-4 0.2256934 0.9741984 -4.39863e-4 0.6825708 0.7308184 -0.001330256 0.6825707 0.7308184 -0.001330256 0.9565267 0.2916387 -0.001864135 0.9565268 0.2916384 -0.001864135 0.9741991 -0.2256826 -0.001898586 0.9741992 -0.2256821 -0.001898586 0.7308496 -0.6825371 -0.001424312 0.7308496 -0.682537 -0.001424312 0.2916296 -0.9565312 -5.68351e-4 0.2916294 -0.9565312 -5.68367e-4 -0.2256775 -0.974202 4.39823e-4 -0.2256774 -0.974202 4.39828e-4 -0.6825708 -0.7308182 0.001330256 -0.6825708 -0.7308183 0.001330256 -0.9565281 -0.2916346 0.001864194 -0.9565281 -0.2916343 0.001864135 -0.9741982 0.2256866 0.001898586 -0.9741982 0.2256865 0.001898586 -0.7308497 0.682537 0.001424312 -0.7308496 0.6825371 0.001424312 -0.2916452 0.9565265 5.6839e-4 -0.2916452 0.9565265 5.68398e-4 0.2256934 0.9741983 -4.39857e-4 0.2256934 0.9741984 -4.39864e-4 0.6825708 0.7308182 -0.001330256 0.6825708 0.7308183 -0.001330256 0.9565268 0.2916387 -0.001864135 0.956527 0.2916382 -0.001864135 0.9741992 -0.2256821 -0.001898586 0.9741992 -0.2256821 -0.001898586 0.7308497 -0.682537 -0.001424312 0.7308495 -0.6825372 -0.001424312 0.2916295 -0.9565312 -5.68355e-4 0.2916296 -0.9565313 -5.6837e-4 -0.2256774 -0.974202 4.39828e-4 -0.2256774 -0.974202 4.39828e-4 -0.6825708 -0.7308183 0.001330256 -0.6825709 -0.7308182 0.001330256 -0.9565281 -0.2916345 0.001864194 -0.9565281 -0.2916346 0.001864194 0.9994152 0.03413921 -0.00194776 0.9994152 0.03413903 -0.00194776 0.9994152 0.03413903 -0.00194776 0.1306502 0.9914286 -2.54622e-4 0.1306502 0.9914285 -2.54637e-4 0.5642895 0.8255763 -0.001099705 0.5642896 0.8255762 -0.001099705 0.8762803 0.481799 -0.001707792 0.8762803 0.4817988 -0.001707792 0.9994152 0.03413927 -0.00194776 0.9994152 0.03413915 -0.00194776 0.9071132 -0.4208831 -0.001767873 0.9071128 -0.420884 -0.001767873 0.6193103 -0.7851454 -0.001206934 0.6193102 -0.7851456 -0.001206934 0.1980086 -0.9802002 -3.85914e-4 0.1980087 -0.9802002 -3.85888e-4 0.9994152 0.03413963 -0.00194776 0.9994152 0.03413963 -0.00194776 0.9994153 0.03413891 -0.00194776 0.1306502 0.9914285 -2.63308e-4 0.1982336 -0.9801548 -3.96751e-4 0.1980087 -0.9802002 -3.85891e-4 0.6193102 -0.7851456 -0.001206934 0.6193103 -0.7851454 -0.001206934 0.907113 -0.4208837 -0.001767873 0.9071132 -0.4208833 -0.001767873 0.9994152 0.03413844 -0.00194776 0.9994152 0.03413963 -0.00194776 0.8762803 0.4817988 -0.001707792 0.8762802 0.481799 -0.001707792 0.5642894 0.8255763 -0.001099705 0.5642896 0.8255762 -0.001099705 0.1308399 0.9914035 -2.55008e-4 -0.001958906 1.34902e-6 -0.9999981 -0.001946568 1.46645e-5 -0.9999981 -0.001718163 2.58404e-6 -0.9999985 -0.001950681 -1.23699e-7 -0.9999981 -0.0019508 -1.21236e-6 -0.9999982 -0.001949131 -2.13147e-6 -0.9999982 -0.001932919 1.576e-7 -0.9999982 -0.001963019 0 -0.9999982 -0.00194925 5.47279e-7 -0.9999981 -0.001950383 1.32324e-6 -0.9999981 -0.001948475 -4.49321e-7 -0.9999981 -0.001982331 5.33529e-6 -0.9999981 -0.001867353 8.8617e-7 -0.9999983 -0.001954197 3.93524e-7 -0.9999982 -0.001941561 0 -0.9999982 -0.00189644 2.644e-6 -0.9999982 -0.001944959 1.72811e-6 -0.9999982 -0.001963853 2.03586e-6 -0.9999981 -0.001954853 3.02452e-6 -0.9999982 -0.001949429 1.66275e-6 -0.9999982 -0.00194627 -4.80233e-6 -0.9999982 -0.001949906 8.20766e-7 -0.9999982 -0.001954376 -5.78567e-7 -0.9999982 -0.001937627 1.39065e-6 -0.9999982 -0.001945972 2.29762e-6 -0.9999982 0.001951754 2.65143e-7 0.9999981 0.001952946 -6.40548e-7 0.9999982 0.00193274 -6.21192e-7 0.9999982 0.001948595 -4.31311e-7 0.9999982 0.001960217 -2.3721e-6 0.9999981 0.001947164 -1.71329e-6 0.9999981 0.001948535 -7.52123e-7 0.9999981 0.001949489 2.46523e-6 0.9999981 0.001948118 -3.17816e-6 0.9999981 0.001949012 -1.46795e-6 0.9999982 0.001948893 4.40383e-7 0.9999982 0.001949071 4.4858e-7 0.9999982 0.001948416 7.86058e-7 0.9999981 0.001950144 -5.29402e-7 0.9999981 0.001950085 1.07376e-6 0.9999982 0.001950204 1.04994e-6 0.9999981 0.001949906 -1.95737e-6 0.9999981 0.001951277 -2.75846e-6 0.9999982 0.001949429 1.50146e-6 0.9999982 0.00194472 1.64854e-6 0.9999982 0.001944005 2.15257e-7 0.9999982 0.001954913 7.08234e-7 0.9999981 0.001954078 2.7845e-6 0.9999981 -0.001948773 -3.61643e-7 -0.9999981 -0.001948535 -1.14474e-6 -0.9999981 0.9994153 0.03413903 -0.00194776 0.9994152 0.03413939 -0.00194776 0.001948535 -8.52191e-7 0.9999981 0.001948893 -1.04217e-6 0.9999982 -0.9994153 -0.03413873 0.00194782 -0.9994152 -0.03413939 0.0019477 0.03413927 -0.9994171 -6.65499e-5 0.03413915 -0.9994171 -6.6496e-5 0.03413939 -0.9994171 -7.09852e-5 0.03413927 -0.9994171 -6.57926e-5 0.03413891 -0.9994171 -6.65433e-5 0.03413879 -0.9994171 -6.64085e-5 0.03413891 -0.9994171 -6.65491e-5 0.03413927 -0.9994171 -6.57926e-5 0.03413915 -0.9994171 -6.65318e-5 0.03413909 -0.9994171 -6.6549e-5 0.9994152 0.03413945 -0.001947939 0.9994152 0.03413915 -0.001947939 -0.001948535 5.25807e-7 -0.9999982 -0.001948952 -2.33615e-7 -0.9999982 -0.9994152 -0.03413921 0.0019477 -0.9994152 -0.03413921 0.0019477 0.00194925 -5.10902e-7 0.9999981 0.001948297 2.18711e-7 0.9999982</float_array>
          <technique_common>
            <accessor source="#Left_rudder-mesh-normals-array" count="388" stride="3">
              <param name="X" type="float"/>
              <param name="Y" type="float"/>
              <param name="Z" type="float"/>
            </accessor>
          </technique_common>
        </source>
        <vertices id="Left_rudder-mesh-vertices">
          <input semantic="POSITION" source="#Left_rudder-mesh-positions"/>
        </vertices>
        <triangles material="Material_001-material" count="388">
          <input semantic="VERTEX" source="#Left_rudder-mesh-vertices" offset="0"/>
          <input semantic="NORMAL" source="#Left_rudder-mesh-normals" offset="1"/>
          <p>0 0 1 0 2 0 2 1 1 1 3 1 2 2 3 2 4 2 5 3 3 3 6 3 6 4 3 4 1 4 6 5 1 5 7 5 7 6 1 6 8 6 7 7 8 7 9 7 9 8 8 8 10 8 11 9 12 9 13 9 11 10 14 10 12 10 12 11 14 11 10 11 12 12 10 12 15 12 15 13 10 13 8 13 15 14 8 14 16 14 16 15 8 15 17 15 18 16 19 16 20 16 13 17 16 17 11 17 11 18 16 18 17 18 11 19 17 19 20 19 20 20 17 20 21 20 20 21 21 21 18 21 18 22 21 22 22 22 18 23 22 23 23 23 0 24 24 24 1 24 1 25 24 25 25 25 1 26 25 26 8 26 8 27 25 27 26 27 8 28 26 28 17 28 17 29 26 29 27 29 17 30 27 30 21 30 21 31 27 31 28 31 21 32 28 32 22 32 5 33 29 33 3 33 3 34 29 34 4 34 30 35 31 35 32 35 32 36 31 36 33 36 34 37 35 37 36 37 37 38 38 38 39 38 40 39 41 39 30 39 24 40 0 40 41 40 42 41 43 41 44 41 44 42 43 42 45 42 44 43 45 43 46 43 46 44 45 44 34 44 46 45 34 45 39 45 39 46 34 46 36 46 39 47 36 47 37 47 32 48 33 48 47 48 48 49 42 49 49 49 49 50 42 50 44 50 49 51 44 51 47 51 47 52 44 52 40 52 47 53 40 53 32 53 32 54 40 54 30 54 41 55 40 55 24 55 24 56 40 56 44 56 24 57 44 57 25 57 25 58 44 58 46 58 25 59 46 59 26 59 26 60 46 60 39 60 26 61 39 61 27 61 27 62 39 62 38 62 27 63 38 63 28 63 50 64 51 64 52 64 52 65 51 65 53 65 52 66 53 66 54 66 54 67 53 67 55 67 54 68 55 68 56 68 56 69 55 69 57 69 56 70 57 70 58 70 58 71 57 71 59 71 58 72 59 72 60 72 60 73 59 73 61 73 60 74 61 74 62 74 62 75 61 75 63 75 62 76 63 76 64 76 64 77 63 77 65 77 64 78 65 78 66 78 66 79 65 79 67 79 66 80 67 80 68 80 68 81 67 81 69 81 68 82 69 82 70 82 70 83 69 83 71 83 70 84 71 84 72 84 72 85 71 85 73 85 72 86 73 86 50 86 50 87 73 87 51 87 35 88 74 88 36 88 36 89 74 89 75 89 36 90 75 90 37 90 75 91 74 91 76 91 75 92 76 92 77 92 77 93 76 93 78 93 77 94 78 94 79 94 79 95 78 95 80 95 79 96 80 96 81 96 81 97 80 97 82 97 81 98 82 98 83 98 83 99 82 99 84 99 83 100 84 100 85 100 85 101 84 101 86 101 85 102 86 102 87 102 87 103 86 103 88 103 87 104 88 104 89 104 23 105 89 105 18 105 18 106 89 106 88 106 18 107 88 107 19 107 11 108 20 108 90 108 90 109 20 109 91 109 90 110 91 110 92 110 92 111 91 111 93 111 92 112 93 112 94 112 94 113 93 113 95 113 94 114 95 114 45 114 45 115 95 115 34 115 96 116 14 116 11 116 45 117 43 117 94 117 94 118 43 118 97 118 11 119 90 119 96 119 96 120 90 120 92 120 96 121 92 121 98 121 99 122 100 122 97 122 97 123 100 123 101 123 97 124 101 124 94 124 94 125 101 125 102 125 94 126 102 126 92 126 92 127 102 127 103 127 92 128 103 128 98 128 104 129 105 129 106 129 99 130 97 130 105 130 105 131 97 131 107 131 105 132 107 132 106 132 98 133 108 133 96 133 96 134 108 134 109 134 96 135 109 135 110 135 110 136 109 136 111 136 110 137 111 137 112 137 112 138 111 138 113 138 112 139 113 139 114 139 114 140 113 140 104 140 114 141 104 141 115 141 115 142 104 142 106 142 35 143 34 143 74 143 74 144 34 144 68 144 74 145 68 145 76 145 76 146 68 146 70 146 76 147 70 147 78 147 78 148 70 148 72 148 78 149 72 149 80 149 80 150 72 150 50 150 88 151 56 151 58 151 56 152 88 152 54 152 54 153 88 153 86 153 54 154 86 154 52 154 52 155 86 155 84 155 52 156 84 156 50 156 50 157 84 157 82 157 50 158 82 158 80 158 20 159 19 159 91 159 91 160 19 160 88 160 91 161 88 161 93 161 93 162 88 162 58 162 58 163 60 163 93 163 93 164 60 164 62 164 93 165 62 165 95 165 95 166 62 166 64 166 95 167 64 167 34 167 34 168 64 168 66 168 34 169 66 169 68 169 6 170 7 170 116 170 116 171 7 171 117 171 116 172 117 172 118 172 118 173 117 173 119 173 118 174 119 174 120 174 120 175 119 175 121 175 120 176 121 176 47 176 47 177 121 177 49 177 47 178 33 178 120 178 120 179 33 179 31 179 29 180 5 180 6 180 122 181 118 181 123 181 123 182 118 182 120 182 123 183 120 183 124 183 124 184 120 184 31 184 124 185 31 185 125 185 125 186 31 186 126 186 122 187 127 187 118 187 118 188 127 188 29 188 118 189 29 189 116 189 116 190 29 190 6 190 128 191 129 191 130 191 126 192 31 192 129 192 129 193 31 193 131 193 129 194 131 194 130 194 127 195 132 195 29 195 29 196 132 196 133 196 29 197 133 197 134 197 134 198 133 198 135 198 134 199 135 199 136 199 136 200 135 200 137 200 136 201 137 201 138 201 138 202 137 202 128 202 138 203 128 203 139 203 139 204 128 204 130 204 48 205 49 205 140 205 140 206 49 206 141 206 140 207 141 207 142 207 142 208 141 208 143 208 142 209 143 209 144 209 144 210 143 210 145 210 144 211 145 211 146 211 146 212 145 212 147 212 148 213 149 213 150 213 149 214 148 214 151 214 151 215 148 215 152 215 151 216 152 216 153 216 153 217 152 217 154 217 153 218 154 218 147 218 147 219 154 219 155 219 147 220 155 220 146 220 7 221 9 221 117 221 117 222 9 222 148 222 117 223 148 223 119 223 119 224 148 224 150 224 150 225 156 225 119 225 119 226 156 226 157 226 119 227 157 227 121 227 121 228 157 228 158 228 121 229 158 229 49 229 49 230 158 230 159 230 49 231 159 231 141 231 147 232 104 232 153 232 153 233 104 233 113 233 153 234 113 234 151 234 151 235 113 235 111 235 151 236 111 236 149 236 149 237 111 237 109 237 149 238 109 238 150 238 150 239 109 239 108 239 150 240 108 240 156 240 156 241 108 241 98 241 156 242 98 242 157 242 157 243 98 243 103 243 157 244 103 244 158 244 158 245 103 245 102 245 158 246 102 246 159 246 159 247 102 247 101 247 159 248 101 248 141 248 141 249 101 249 100 249 141 250 100 250 143 250 143 251 100 251 99 251 143 252 99 252 145 252 145 253 99 253 105 253 145 254 105 254 147 254 147 255 105 255 104 255 160 256 128 256 161 256 161 257 128 257 137 257 161 258 137 258 162 258 162 259 137 259 135 259 162 260 135 260 163 260 163 261 135 261 133 261 163 262 133 262 164 262 164 263 133 263 132 263 164 264 132 264 165 264 165 265 132 265 127 265 165 266 127 266 166 266 166 267 127 267 122 267 166 268 122 268 167 268 167 269 122 269 123 269 167 270 123 270 168 270 168 271 123 271 124 271 168 272 124 272 169 272 169 273 124 273 125 273 169 274 125 274 170 274 170 275 125 275 126 275 170 276 126 276 171 276 171 277 126 277 129 277 171 278 129 278 160 278 160 279 129 279 128 279 14 280 96 280 10 280 10 281 96 281 148 281 10 282 148 282 9 282 97 283 140 283 142 283 97 284 142 284 107 284 107 285 142 285 144 285 107 286 144 286 106 286 106 287 144 287 146 287 106 288 146 288 115 288 115 289 146 289 155 289 115 290 155 290 114 290 114 291 155 291 154 291 114 292 154 292 112 292 112 293 154 293 152 293 112 294 152 294 110 294 110 295 152 295 148 295 110 296 148 296 96 296 48 297 140 297 42 297 42 298 140 298 97 298 42 299 97 299 43 299 131 300 31 300 30 300 172 301 4 301 29 301 29 302 134 302 172 302 172 303 134 303 136 303 172 304 136 304 173 304 173 305 136 305 138 305 173 306 138 306 174 306 174 307 138 307 139 307 174 308 139 308 175 308 175 309 139 309 130 309 175 310 130 310 176 310 176 311 130 311 131 311 176 312 131 312 177 312 177 313 131 313 30 313 37 314 75 314 38 314 38 315 75 315 28 315 89 316 23 316 61 316 61 317 23 317 22 317 61 318 22 318 63 318 63 319 22 319 28 319 71 320 69 320 75 320 75 321 69 321 67 321 75 322 67 322 28 322 28 323 67 323 65 323 28 324 65 324 63 324 51 325 73 325 79 325 71 326 75 326 73 326 73 327 75 327 77 327 73 328 77 328 79 328 61 329 59 329 89 329 89 330 59 330 57 330 89 331 57 331 87 331 87 332 57 332 55 332 87 333 55 333 85 333 85 334 55 334 53 334 85 335 53 335 83 335 83 336 53 336 51 336 83 337 51 337 81 337 81 338 51 338 79 338 160 339 161 339 173 339 173 340 161 340 172 340 172 341 161 341 162 341 172 342 162 342 4 342 162 343 163 343 4 343 4 344 163 344 164 344 4 345 164 345 2 345 164 346 165 346 2 346 2 347 165 347 166 347 2 348 166 348 0 348 0 349 166 349 41 349 41 350 166 350 167 350 41 351 167 351 30 351 173 352 174 352 160 352 160 353 174 353 175 353 160 354 175 354 171 354 171 355 175 355 176 355 171 356 176 356 170 356 170 357 176 357 177 357 170 358 177 358 169 358 169 359 177 359 30 359 169 360 30 360 168 360 168 361 30 361 167 361 178 362 16 362 179 362 179 363 16 363 13 363 179 364 13 364 180 364 180 365 13 365 12 365 180 366 12 366 181 366 181 367 12 367 15 367 181 368 15 368 178 368 178 369 15 369 16 369 182 370 179 370 183 370 183 371 179 371 180 371 183 372 180 372 184 372 184 373 180 373 181 373 184 374 181 374 185 374 185 375 181 375 178 375 185 376 178 376 182 376 182 377 178 377 179 377 186 378 187 378 188 378 188 379 187 379 189 379 186 380 184 380 187 380 187 381 184 381 185 381 188 382 183 382 186 382 186 383 183 383 184 383 189 384 182 384 188 384 188 385 182 385 183 385 187 386 185 386 189 386 189 387 185 387 182 387</p>
        </triangles>
      </mesh>
    </geometry>
  </library_geometries>
  <library_visual_scenes>
    <visual_scene id="Scene" name="Scene">
      <node id="Left_rudder" name="Left_rudder" type="NODE">
        <matrix sid="transform">1 0 0 0 0 1 0 0 0 0 1 0 0 0 0 1</matrix>
        <instance_geometry url="#Left_rudder-mesh" name="Left_rudder">
          <bind_material>
            <technique_common>
              <instance_material symbol="Material_001-material" target="#Material_001-material"/>
            </technique_common>
          </bind_material>
        </instance_geometry>
      </node>
    </visual_scene>
  </library_visual_scenes>
  <scene>
    <instance_visual_scene url="#Scene"/>
  </scene>
</COLLADA>