<?xml version="1.0" encoding="utf-8"?>
<COLLADA xmlns="http://www.collada.org/2005/11/COLLADASchema" version="1.4.1" xmlns:xsi="http://www.w3.org/2001/XMLSchema-instance">
  <asset>
    <contributor>
      <author>Blender User</author>
      <authoring_tool>Blender 3.6.23 commit date:2025-06-16, commit time:11:52, hash:e467db79ca8c</authoring_tool>
    </contributor>
    <created>2026-08-13T12:15:43</created>
    <modified>2026-08-13T12:15:43</modified>
    <unit name="meter" meter="1"/>
    <up_axis>Z_UP</up_axis>
  </asset>
  <library_effects>
    <effect id="Material_001-effect">
      <profile_COMMON>
        <technique sid="common">
          <lambert>
            <emission>
              <color sid="emission">0 0 0 1</color>
            </emission>
            <diffuse>
              <color sid="diffuse">1 1 1 1</color>
            </diffuse>
            <index_of_refraction>
              <float sid="ior">1.45</float>
            </index_of_refraction>
          </lambert>
        </technique>
      </profile_COMMON>
    </effect>
  </library_effects>
  <library_images/>
  <library_materials>
    <material id="Material_001-material" name="Material.001">
      <instance_effect url="#Material_001-effect"/>
    </material>
  </library_materials>
  <library_geometries>
    <geometry id="Right_rudder-mesh" name="Right_rudder">
      <mesh>
        <source id="Right_rudder-mesh-positions">
          <float_array id="Right_rudder-mesh-positions-array" count="573">-0.002100765 0.003290176 -0.008595883 -1.91946e-4 0.003407835 -0.008599638 -2.40669e-4 0.003449141 -0.03393173 -0.002079129 0.003371596 -0.06692939 -3.0435e-4 0.003489732 -0.06693285 -3.65079e-4 0.003518223 -0.09832167 -3.77338e-4 0.00352323 -0.1046217 -0.01161253 0.00270152 -0.1045998 -0.01179355 0.002684175 -0.09829938 -0.00243777 0.003323435 -0.04596751 -0.01184958 0.00264877 -0.04594922 -0.0141294 0.002463877 -0.03390461 -0.0118581 0.002651154 -0.05034917 -0.01282906 0.002586007 -0.06665009 -2.86578e-4 0.003479659 -0.05773288 -0.002078771 0.003361463 -0.05772936 -0.002079069 0.003371357 -0.06667107 -0.01583379 0.00230509 0.002028942 -0.002110123 0.003272771 6.04114e-4 -1.71616e-4 0.003387093 0.001998424 -1.74296e-4 0.003389954 6.00341e-4 -0.002446293 0.003328263 -0.05036753 -0.03539514 5.54291e-4 0.002067089 -0.03533184 5.54291e-4 0.03454667 -0.01763069 0.002138614 0.03451216 -1.09589e-4 0.003305792 0.034478 -0.03546518 5.54291e-4 -0.033863 -0.03552901 5.54291e-4 -0.06660586 -0.03559064 5.54291e-4 -0.09825301 -0.03560292 5.54291e-4 -0.104553 -1.75619e-4 0.003305435 6.00344e-4 -2.80346e-4 -0.003382802 6.00548e-4 -2.79022e-4 -0.003298282 6.00546e-4 -2.77576e-4 -0.00337994 0.001998662 -2.13002e-4 -0.00329858 0.03447824 -0.00221157 -0.00320512 6.04312e-4 -2.98555e-4 -0.003400683 -0.0085994 -0.002202749 -0.003223359 -0.008595705 -0.01419967 -0.002022385 -0.03390449 -0.01589816 -0.001808106 0.002029061 -0.002183735 -0.003308951 -0.06692916 -0.002183079 -0.003298282 -0.05772918 -3.48573e-4 -0.003441989 -0.03393149 -3.95437e-4 -0.003472506 -0.05773264 -4.75145e-4 -0.003511071 -0.09832149 -4.13525e-4 -0.00348258 -0.06693261 -0.0129038 -0.002187132 -0.06664997 -0.01187187 -0.002319633 -0.09829926 -0.01169151 -0.002342998 -0.1045996 -4.87561e-4 -0.003516018 -0.1046214 -0.01768898 -0.001583456 0.03451228 0.00156933 -2.66101e-5 -0.06693649 0.001495838 -2.66101e-5 -0.1046253 0.001328289 -8.72947e-4 -0.06693601 0.001254796 -8.72947e-4 -0.1046248 6.96425e-4 -0.001485347 -0.06693482 6.22972e-4 -0.001485347 -0.1046236 -1.57057e-4 -0.001699745 -0.06693315 -2.3051e-4 -0.001699745 -0.104622 -0.001003384 -0.001458704 -0.06693148 -0.001076817 -0.001458704 -0.1046203 -0.001615762 -8.26848e-4 -0.06693029 -0.001689195 -8.26848e-4 -0.1046191 -0.00183016 2.66207e-5 -0.06692987 -0.001903653 2.66207e-5 -0.1046187 -0.001589179 8.72943e-4 -0.06693035 -0.001662611 8.72943e-4 -0.1046192 -9.57308e-4 0.001485347 -0.0669316 -0.001030743 0.001485347 -0.1046204 -1.03826e-4 0.001699745 -0.06693321 -1.77278e-4 0.001699745 -0.1046221 7.42524e-4 0.001458704 -0.06693488 6.69072e-4 0.001458704 -0.1046237 0.001354873 8.26843e-4 -0.06693607 0.00128144 8.26843e-4 -0.1046249 -4.84091e-4 -0.003298282 -0.1046215 -4.10639e-4 -0.003298282 -0.06693261 -3.80688e-4 0.003305435 -0.1046217 -3.07236e-4 0.003305435 -0.06693285 0.001204431 0.003029048 -0.06693577 0.001130998 0.003029048 -0.1046246 0.002428472 0.002099752 -0.06693816 0.002354979 0.002099752 -0.104627 0.003100931 7.1791e-4 -0.06693947 0.003027498 7.1791e-4 -0.1046283 0.00307691 -8.18718e-4 -0.06693941 0.003003418 -8.18718e-4 -0.1046283 0.002361476 -0.002178847 -0.06693804 0.002287983 -0.002178847 -0.1046268 0.001108944 -0.003069341 -0.06693559 0.001035511 -0.003069341 -0.1046244 -0.003461837 0.001994907 -0.05772668 -0.003522634 -0.00188905 -0.05772656 -0.003540575 -0.00188905 -0.06692653 -0.004011988 6.10646e-5 -0.0577256 -0.004029929 6.10646e-5 -0.06692558 -0.003479778 0.001994907 -0.06692665 -2.89306e-4 0.003305435 -0.05773288 -3.92709e-4 -0.003298282 -0.05773264 0.001587212 -2.66101e-5 -0.05773651 0.001372814 8.26843e-4 -0.05773609 0.002446413 0.002099752 -0.05773818 0.001222372 0.003029048 -0.0577358 7.60454e-4 0.001458704 -0.0577349 -8.5896e-5 0.001699745 -0.05773323 -9.39378e-4 0.001485347 -0.05773156 -0.001571238 8.72943e-4 -0.05773037 -0.001812279 2.66207e-5 -0.05772989 -0.001597821 -8.26848e-4 -0.05773031 0.003118872 7.1791e-4 -0.05773949 0.003094792 -8.18718e-4 -0.05773943 0.00134623 -8.72947e-4 -0.05773603 0.002379417 -0.002178847 -0.05773806 7.14355e-4 -0.001485347 -0.05773478 0.001126885 -0.003069341 -0.05773562 -1.39127e-4 -0.001699745 -0.05773317 -9.85477e-4 -0.001458704 -0.0577315 -0.003447055 -0.001818835 6.0672e-4 -0.003464937 -0.001818835 -0.008593261 -0.003898322 6.10646e-5 6.07599e-4 -0.003916203 6.10646e-5 -0.008592367 -0.003388404 0.001925885 6.06606e-4 -0.003406345 0.001925885 -0.00859338 0.001700937 -2.66101e-5 5.96687e-4 0.00148648 8.26843e-4 5.97105e-4 0.002560079 0.002099752 5.95012e-4 0.001336097 0.003029048 5.97398e-4 8.74141e-4 0.001458704 5.98298e-4 2.77907e-5 0.001699745 5.99948e-4 -8.25691e-4 0.001485347 6.01611e-4 -0.001457512 8.72943e-4 6.02842e-4 -0.001698553 2.66207e-5 6.03312e-4 -0.001484155 -8.26848e-4 6.02894e-4 0.003232538 7.1791e-4 5.93702e-4 0.003208518 -8.18718e-4 5.93749e-4 0.001459896 -8.72947e-4 5.97157e-4 0.002493083 -0.002178847 5.95143e-4 8.28041e-4 -0.001485347 5.98388e-4 0.001240611 -0.003069341 5.97584e-4 -2.54405e-5 -0.001699745 6.00051e-4 -8.71791e-4 -0.001458704 6.01701e-4 -1.93549e-4 0.003305435 -0.008599638 9.86065e-6 0.001699745 -0.008599996 0.001318156 0.003029048 -0.008602559 8.56211e-4 0.001458704 -0.008601665 0.002542138 0.002099752 -0.008604943 0.001468598 8.26843e-4 -0.008602857 0.003214657 7.1791e-4 -0.008606255 0.001682996 -2.66101e-5 -0.008603274 -2.96952e-4 -0.003298282 -0.0085994 -4.33705e-5 -0.001699745 -0.008599936 -8.89721e-4 -0.001458704 -0.008598268 8.10111e-4 -0.001485347 -0.008601546 0.00122267 -0.003069341 -0.00860238 0.001441955 -8.72947e-4 -0.008602797 0.002475142 -0.002178847 -0.008604824 0.003190577 -8.18718e-4 -0.008606195 -0.001502096 -8.26848e-4 -0.008597075 -0.001716494 2.66207e-5 -0.008596658 -0.001475453 8.72943e-4 -0.008597135 -8.43621e-4 0.001485347 -0.008598327 0.00176692 -2.66101e-5 0.03447437 0.001525938 -8.72947e-4 0.03447484 8.94066e-4 -0.001485347 0.0344761 4.05844e-5 -0.001699745 0.03447771 -8.05766e-4 -0.001458704 0.03447937 -0.001418113 -8.26848e-4 0.03448057 -0.001632571 2.66207e-5 0.03448098 -0.00139153 8.72943e-4 0.03448051 -7.59666e-4 0.001485347 0.03447932 9.38156e-5 0.001699745 0.03447765 9.40166e-4 0.001458704 0.03447598 0.001552522 8.26843e-4 0.03447479 0.001306593 -0.003069341 0.03447526 0.002559125 -0.002178847 0.03447282 0.0032745 -8.18718e-4 0.03447145 0.00329858 7.1791e-4 0.03447139 0.002626121 0.002099752 0.0344727 0.00140208 0.003029048 0.03447508 -0.01181846 0.005184113 -0.05034923 -0.002419531 0.00503695 -0.05036759 -0.002410948 0.00503695 -0.04596757 -0.01180988 0.005184113 -0.04594928 -0.01121103 0.005174696 -0.04655045 -0.00301212 0.005046308 -0.04656642 -0.003018319 0.005046308 -0.04976642 -0.01121723 0.005174696 -0.04975044 -0.01129555 1.75355e-4 -0.04975026 -0.01128929 1.75355e-4 -0.04655027 -0.00309664 4.69744e-5 -0.04976624 -0.003090381 4.69744e-5 -0.04656624</float_array>
          <technique_common>
            <accessor source="#Right_rudder-mesh-positions-array" count="191" stride="3">
              <param name="X" type="float"/>
              <param name="Y" type="float"/>
              <param name="Z" type="float"/>
            </accessor>
          </technique_common>
        </source>
        <source id="Right_rudder-mesh-normals">
          <float_array id="Right_rudder-mesh-normals-array" count="1167">-0.06149941 0.9981057 0.001746714 -0.0664066 0.9977922 0.001033544 -0.07294124 0.997336 6.431e-4 -0.07150048 0.997439 0.001775681 -0.0772019 0.9970153 6.89978e-4 -0.07758331 0.9969857 6.36951e-4 -0.06579339 0.997794 0.008852481 -0.07161521 0.9974318 0.001104354 -0.07286059 0.9973421 3.54187e-4 -0.07285964 0.9973416 0.001092076 -0.072869 0.9973413 7.10296e-4 -0.07278245 0.9973476 6.83343e-4 -0.07278203 0.9973475 9.31932e-4 -0.07022821 0.9975304 0.001077353 -0.06888556 0.9975263 0.01400655 -0.06040924 0.9981714 0.002169311 -0.07232707 0.9973794 0.001811981 -0.07075917 0.9974929 0.001063048 -0.07075625 0.9974905 0.002500653 -0.06477671 0.9978989 0.001404881 -0.06582796 0.9978303 0.001211822 -0.07175785 0.997422 -5.35374e-4 -0.08914786 0.9960184 1.73741e-4 -0.06646406 0.9977855 0.002624213 -0.06891691 0.9976217 0.001300752 -0.08914732 0.9960185 1.7345e-4 -0.08914732 0.9960184 1.73369e-4 -0.08914673 0.9960185 1.73735e-4 -0.08914673 0.9960185 1.74156e-4 -0.08914726 0.9960185 1.7374e-4 -0.08914732 0.9960185 1.73587e-4 -0.08914703 0.9960185 1.73738e-4 -0.08914726 0.9960185 1.73828e-4 -0.08914697 0.9960185 1.73719e-4 0.9998756 -0.01565617 -0.001948654 0.9998756 -0.01565635 -0.001948654 0.9998756 -0.01565498 -0.001948654 0.9998756 -0.01565521 -0.001948654 -0.09163099 -0.9957906 0.002229452 -0.09272807 -0.9956861 -0.0032925 -0.1019344 -0.9947905 0.001114189 -0.103299 -0.9946498 0.001164734 -0.1019532 -0.9947876 0.001824319 -0.1019531 -0.9947875 0.001850962 -0.09701931 -0.9952814 0.001467585 -0.09761351 -0.9952239 0.001094341 -0.1040556 -0.9945711 8.86399e-4 -0.1040587 -0.9945709 7.71075e-4 -0.1039724 -0.99458 7.44118e-4 -0.1039725 -0.99458 7.06126e-4 -0.10413 -0.9945633 9.90653e-4 -0.1202881 -0.9927391 2.34113e-4 -0.1013501 -0.9948491 0.001875162 -0.1000839 -0.9948796 0.01406878 -0.1001182 -0.9949746 0.001361489 -0.09766739 -0.9952155 0.002687275 -0.1202876 -0.9927392 2.34429e-4 -0.1202876 -0.9927391 2.3443e-4 -0.1202877 -0.992739 2.34468e-4 -0.1202877 -0.992739 2.34438e-4 -0.1202882 -0.992739 2.34791e-4 -0.1202882 -0.992739 2.34442e-4 -0.120288 -0.992739 2.3424e-4 -0.1202879 -0.992739 2.34455e-4 -0.1202875 -0.9927391 2.32168e-4 -0.9617563 0.2739004 0.001874327 -0.9617564 0.2739001 0.001874327 -0.6959655 0.7180739 0.001356363 -0.6959654 0.7180742 0.001356363 -0.2436498 0.9698632 4.74857e-4 -0.2436498 0.9698632 4.74856e-4 0.2738955 0.9617594 -5.33807e-4 0.2738955 0.9617593 -5.33794e-4 0.718106 0.6959324 -0.001399517 0.7181063 0.6959321 -0.001399517 0.9698602 0.2436549 -0.001890122 0.9698603 0.2436543 -0.001890122 0.9617551 -0.2739045 -0.001874327 0.961755 -0.2739049 -0.001874327 0.6959657 -0.7180739 -0.001356363 0.6959654 -0.7180742 -0.001356363 0.2436658 -0.9698592 -4.74889e-4 0.2436659 -0.9698592 -4.74889e-4 -0.2739112 -0.9617548 5.33832e-4 -0.2739114 -0.9617549 5.33833e-4 -0.7181061 -0.6959323 0.001399517 -0.7181059 -0.6959325 0.001399517 -0.9698593 -0.2436587 0.001890122 -0.9698592 -0.243659 0.001890122 0.9998713 -0.01593017 -0.001957893 0.9998756 -0.01565653 -0.001948654 0.9998756 -0.01565629 -0.001948654 0.179853 0.9836934 -3.50516e-4 0.179853 0.9836935 -3.50527e-4 0.604689 0.7964609 -0.001178443 0.6046887 0.7964612 -0.001178443 0.8991767 0.4375821 -0.001752376 0.8991767 0.4375822 -0.001752376 0.9998756 -0.01565635 -0.001948654 0.9998756 -0.01565611 -0.001948654 0.885038 -0.4655158 -0.001724839 0.8850379 -0.4655158 -0.001724839 0.5794562 -0.8150027 -0.001129269 0.5794561 -0.8150028 -0.001129269 0.1489573 -0.9888436 -2.90296e-4 0.1489574 -0.9888436 -2.90324e-4 0.9998756 -0.01565611 -0.001948654 0.9998756 -0.01565623 -0.001948654 0.9998798 -0.01538276 -0.001957893 0.7028557 -0.7113322 -8.08194e-4 0.724781 0.6889788 -8.55921e-4 0.7229812 0.6908664 -0.001408994 0.9699294 0.2433791 -0.001890301 0.9699293 0.2433797 -0.001890301 0.9618335 -0.2736291 -0.001874506 0.9618334 -0.2736295 -0.001874506 0.7010324 -0.7131282 -0.001366257 0.7010102 -0.7131507 -9.85894e-4 -0.001954436 2.47367e-6 -0.9999982 -0.001960754 9.20125e-6 -0.9999982 -0.001951217 -3.01185e-7 -0.9999981 -0.001947402 -1.22279e-5 -0.9999981 -0.001957893 -8.15596e-7 -0.9999981 -0.001947224 3.91614e-7 -0.9999982 -0.001950144 7.14894e-7 -0.9999981 -0.001937091 9.29292e-7 -0.9999982 -0.001966238 -1.13036e-6 -0.9999982 -0.001939833 -6.63213e-7 -0.9999982 -0.001948893 4.93324e-7 -0.9999981 -0.001963913 -3.73716e-6 -0.9999982 -0.001945436 5.13318e-7 -0.9999982 -0.001957058 -8.34973e-7 -0.9999981 -0.001955509 9.1822e-7 -0.9999982 -0.001943171 -1.82743e-7 -0.9999982 -0.001948535 -2.01715e-7 -0.9999982 -0.001951575 -2.75561e-7 -0.9999981 -0.001956284 -9.80027e-7 -0.9999982 -0.001944422 5.49797e-7 -0.9999982 -0.001946806 9.99566e-7 -0.9999982 -0.00194627 2.28146e-6 -0.9999982 -0.001949429 4.86134e-7 -0.9999982 -0.001959919 -1.71884e-7 -0.9999982 -0.001944661 1.58036e-6 -0.9999982 -0.001944959 1.62926e-6 -0.9999982 -0.001935184 3.80689e-6 -0.9999982 0.001948297 9.87199e-6 0.9999981 0.001947641 1.23518e-6 0.9999981 0.001939296 7.09366e-7 0.9999982 0.001954853 -5.13737e-6 0.9999982 0.00194323 -4.46359e-6 0.9999982 0.001936316 1.59032e-6 0.9999982 0.001951456 3.47896e-6 0.9999982 0.001944422 0 0.9999982 0.001950144 -9.61179e-7 0.9999982 0.001932919 -1.24508e-6 0.9999982 0.001950144 -9.8375e-7 0.9999982 0.001996576 1.44865e-6 0.999998 0.001941561 2.07505e-6 0.9999982 0.001957833 0 0.9999981 0.001934885 1.22169e-7 0.9999982 0.001950085 -1.3861e-6 0.9999982 0.001954674 -7.52492e-7 0.9999981 0.001937985 9.82745e-6 0.9999982 0.001945853 1.82415e-7 0.9999982 0.00195831 5.73172e-7 0.9999981 0.001956522 5.83694e-6 0.9999982 0.001953184 1.26297e-6 0.9999981 0.001947999 -2.22828e-7 0.9999981 0.001937091 -8.00633e-7 0.9999982 0.001952171 -2.39783e-6 0.9999982 0.001936137 -2.63233e-6 0.9999982 0.001950204 -3.0092e-6 0.9999982 0.7465522 0.6653265 -6.01297e-4 0.7437768 0.6684265 -0.001449525 0.9723742 0.2334198 -0.00189507 0.9723741 0.2334202 -0.00189507 0.9645889 -0.2637512 -0.00187987 0.9645889 -0.2637517 -0.00187987 0.7253543 -0.6883743 -0.001413643 0.7224864 -0.6913849 -5.6864e-4 -0.001948952 2.17288e-7 -0.9999981 -0.001948893 0 -0.9999981 -0.001948297 -4.74356e-7 -0.9999981 -0.001948833 0 -0.9999981 -0.001949012 0 -0.9999981 -0.001948952 0 -0.9999982 -0.001948893 0 -0.9999981 -0.001948893 0 -0.9999981 -0.001948714 0 -0.9999982 -0.001949012 0 -0.9999981 -0.001949012 0 -0.9999981 -0.001948654 0 -0.9999982 -0.001948893 0 -0.9999981 -0.001948833 0 -0.9999981 -0.001948833 0 -0.9999982 -0.001948893 0 -0.9999982 -0.001948893 0 -0.9999982 -0.001948773 0 -0.9999981 -0.001948893 0 -0.9999982 -0.001948833 0 -0.9999982 -0.001948952 0 -0.9999982 -0.001948833 0 -0.9999982 -0.001948893 0 -0.9999982 -0.001948833 0 -0.9999981 -0.001948893 0 -0.9999982 -0.001949012 0 -0.9999982 -0.001949071 0 -0.9999982 0.001948177 -3.2256e-6 0.9999982 0.001949191 3.76656e-7 0.9999982 0.001948535 3.55198e-7 0.9999981 0.001947581 1.86682e-7 0.9999981 0.001950144 0 0.9999981 0.001947522 -1.72252e-7 0.9999981 0.00195074 2.20187e-7 0.9999982 0.001948177 -3.2516e-7 0.9999981 0.001950442 2.10184e-7 0.9999982 0.001946806 2.14682e-7 0.9999982 0.001948177 1.96431e-7 0.9999981 0.001953065 0 0.9999981 0.001946508 0 0.9999982 0.001948654 5.13848e-7 0.9999981 0.001948773 1.48978e-7 0.9999982 0.00194931 3.98238e-7 0.9999982 0.001947581 3.64597e-7 0.9999981 0.001951575 -3.20023e-6 0.9999981 0.001948297 -4.04115e-7 0.9999982 0.001949727 3.36642e-7 0.9999982 0.001947224 -1.06751e-6 0.9999982 0.001949787 8.34854e-7 0.9999981 0.001948893 0 0.9999981 0.001949608 -4.17468e-7 0.9999982 0.001949191 2.71281e-7 0.9999982 0.001949071 0 0.9999981 0.001948237 3.14607e-7 0.9999982 -0.9617564 0.2739001 0.001874327 -0.9617563 0.2739002 0.001874327 -0.6959653 0.7180742 0.001356363 -0.6959654 0.7180742 0.001356363 -0.2436498 0.9698631 4.74851e-4 -0.2436498 0.9698631 4.74851e-4 0.2738956 0.9617593 -5.33796e-4 0.2738957 0.9617593 -5.33801e-4 0.7181059 0.6959326 -0.001399517 0.7181061 0.6959323 -0.001399517 0.9698603 0.2436545 -0.001890122 0.9698603 0.2436547 -0.001890122 0.9617551 -0.2739045 -0.001874327 0.9617552 -0.2739043 -0.001874327 0.6959651 -0.7180745 -0.001356363 0.6959656 -0.7180739 -0.001356363 0.2436657 -0.9698593 -4.74886e-4 0.2436658 -0.9698591 -4.74881e-4 -0.2739114 -0.9617549 5.33825e-4 -0.2739113 -0.9617548 5.33836e-4 -0.7181062 -0.6959322 0.001399517 -0.718106 -0.6959323 0.001399517 -0.9698592 -0.2436588 0.001890122 -0.9698592 -0.2436589 0.001890122 -0.9617563 0.2739002 0.001874327 -0.9617563 0.2739002 0.001874327 -0.6959653 0.7180742 0.001356363 -0.6959653 0.7180742 0.001356363 -0.2436498 0.9698632 4.74858e-4 -0.2436499 0.9698632 4.7485e-4 0.2738956 0.9617594 -5.33805e-4 0.2738956 0.9617593 -5.3379e-4 0.718106 0.6959324 -0.001399517 0.7181061 0.6959323 -0.001399517 0.9698603 0.2436546 -0.001890122 0.9698601 0.2436549 -0.001890122 0.9617551 -0.2739048 -0.001874327 0.9617551 -0.2739045 -0.001874327 0.6959655 -0.718074 -0.001356363 0.6959652 -0.7180743 -0.001356363 0.2436658 -0.9698592 -4.74886e-4 0.2436658 -0.9698592 -4.74879e-4 -0.2739112 -0.9617548 5.33826e-4 -0.2739113 -0.9617548 5.33833e-4 -0.7181062 -0.6959322 0.001399517 -0.9698592 -0.2436587 0.001890122 -0.9698592 -0.243659 0.001890122 0.9998756 -0.01565635 -0.001948654 0.9998756 -0.01565617 -0.001948654 0.9998756 -0.01565647 -0.001948654 0.179853 0.9836935 -3.50537e-4 0.179853 0.9836934 -3.50515e-4 0.6046888 0.7964611 -0.001178443 0.6046888 0.7964611 -0.001178443 0.8991767 0.4375823 -0.001752376 0.8991767 0.4375822 -0.001752376 0.9998756 -0.01565617 -0.001948654 0.9998756 -0.01565635 -0.001948654 0.8850378 -0.4655162 -0.001724839 0.8850378 -0.4655159 -0.001724839 0.5794562 -0.8150027 -0.001129269 0.5794563 -0.8150027 -0.001129269 0.1489573 -0.9888437 -2.903e-4 0.1489573 -0.9888437 -2.90305e-4 0.9998756 -0.01565635 -0.001948654 0.9998756 -0.01565575 -0.001948654 0.9998756 -0.01565623 -0.001948654 0.179853 0.9836935 -3.60927e-4 0.1491464 -0.9888151 -2.99369e-4 0.1489573 -0.9888437 -2.90288e-4 0.5794561 -0.8150028 -0.001129269 0.579456 -0.8150028 -0.001129269 0.8850378 -0.4655159 -0.001724839 0.8850378 -0.465516 -0.001724839 0.9998756 -0.01565599 -0.001948654 0.9998756 -0.01565623 -0.001948654 0.8991767 0.4375821 -0.001752376 0.8991766 0.4375825 -0.001752376 0.6046889 0.796461 -0.001178443 0.6046887 0.7964612 -0.001178443 0.1800788 0.9836522 -3.5096e-4 -0.001948952 -4.967e-7 -0.9999982 -0.001944065 -4.23648e-6 -0.9999982 -0.0019508 -7.90277e-6 -0.9999982 -0.001947522 1.0374e-6 -0.9999981 -0.001973867 -1.55793e-6 -0.9999981 -0.001934707 -6.63115e-7 -0.9999982 -0.001947104 8.70777e-6 -0.9999981 -0.001949548 -1.01463e-6 -0.9999981 -0.001949131 -4.95519e-7 -0.9999981 -0.001951456 -3.16655e-6 -0.9999982 -0.001977324 -5.51834e-7 -0.999998 -0.00193268 -1.32184e-6 -0.9999982 -0.00197339 1.64053e-6 -0.9999981 -0.001947224 2.39547e-6 -0.9999982 -0.001933395 5.27299e-7 -0.9999982 -0.001951575 1.63877e-6 -0.9999981 -0.001943826 1.3857e-6 -0.9999982 -0.001944422 0 -0.9999982 -0.001953005 -1.39704e-7 -0.9999981 -0.00194627 -4.61409e-6 -0.9999981 -0.001949429 -1.67333e-7 -0.9999981 -0.001939713 8.95182e-7 -0.9999982 -0.001954674 1.1819e-6 -0.9999981 -0.001914143 9.611e-7 -0.9999983 -0.001935184 7.7248e-7 -0.9999982 0.001949012 0 0.9999982 0.001948773 -9.27886e-7 0.9999982 0.001948893 -4.35967e-7 0.9999981 0.001949012 4.53594e-7 0.9999981 0.001927256 -6.72185e-7 0.9999982 0.001952946 -1.25612e-6 0.9999982 0.001941442 -1.00344e-6 0.9999982 0.001948595 -3.70962e-7 0.9999982 0.001954734 -1.9717e-6 0.9999981 0.001954913 -1.63431e-6 0.9999981 0.001948833 -1.84205e-6 0.9999981 0.001948773 2.08483e-6 0.9999981 0.001948833 7.3425e-7 0.9999982 0.001973271 -1.67068e-6 0.9999981 0.001948416 6.56398e-7 0.9999981 0.001945078 7.0333e-7 0.9999982 0.001953601 -1.75374e-6 0.9999981 0.00194633 -1.79231e-6 0.9999981 0.001948773 1.59047e-6 0.9999981 0.001949727 0 0.9999982 0.001949369 1.05601e-6 0.9999981 0.001946926 9.79956e-7 0.9999982 0.001957118 -8.96243e-7 0.9999982 -0.001948118 1.09806e-6 -0.9999982 -0.001949608 0 -0.9999981 0.9998756 -0.01565623 -0.001948654 0.9998756 -0.01565647 -0.001948714 0.001948535 0 0.9999981 0.001948773 3.41032e-7 0.9999982 -0.9998756 0.01565682 0.001948773 -0.9998756 0.01565587 0.001948714 0.01565635 0.9998775 -2.95773e-5 0.01565641 0.9998775 -2.96713e-5 0.01565676 0.9998775 -3.05513e-5 0.01565676 0.9998775 -3.03575e-5 0.01565635 0.9998775 -3.2535e-5 0.01565611 0.9998775 -3.09611e-5 0.01565599 0.9998775 -3.05483e-5 0.01565599 0.9998775 -3.04084e-5 0.01565623 0.9998775 -3.05103e-5 0.01565623 0.9998775 -3.05103e-5 0.9998756 -0.01565647 -0.001948535 0.9998756 -0.01565653 -0.001948535 -0.001948535 7.08123e-7 -0.9999982 -0.001949429 0 -0.9999981 -0.9998756 0.01565617 0.001948654 -0.9998756 0.01565617 0.001948595 0.001948535 -7.15055e-7 0.9999982 0.001948714 0 0.9999982</float_array>
          <technique_common>
            <accessor source="#Right_rudder-mesh-normals-array" count="389" stride="3">
              <param name="X" type="float"/>
              <param name="Y" type="float"/>
              <param name="Z" type="float"/>
            </accessor>
          </technique_common>
        </source>
        <vertices id="Right_rudder-mesh-vertices">
          <input semantic="POSITION" source="#Right_rudder-mesh-positions"/>
        </vertices>
        <triangles material="Material_001-material" count="390">
          <input semantic="VERTEX" source="#Right_rudder-mesh-vertices" offset="0"/>
          <input semantic="NORMAL" source="#Right_rudder-mesh-normals" offset="1"/>
          <p>0 0 1 0 2 0 3 1 4 1 5 1 6 2 7 2 8 2 9 3 10 3 11 3 11 4 10 4 12 4 11 5 12 5 13 5 14 6 15 6 12 6 12 7 15 7 16 7 12 8 16 8 13 8 13 9 16 9 3 9 13 10 3 10 8 10 8 11 3 11 5 11 8 12 5 12 6 12 11 13 17 13 18 13 18 14 17 14 19 14 18 15 19 15 20 15 18 16 0 16 11 16 11 17 0 17 2 17 11 18 2 18 9 18 9 19 2 19 14 19 9 20 14 20 21 20 21 21 14 21 12 21 22 22 23 22 24 22 25 23 19 23 24 23 24 24 19 24 17 24 24 25 17 25 22 25 22 26 17 26 11 26 22 27 11 27 26 27 26 28 11 28 13 28 26 29 13 29 27 29 27 30 13 30 8 30 27 31 8 31 28 31 28 32 8 32 7 32 28 33 7 33 29 33 25 34 30 34 19 34 19 35 30 35 20 35 31 36 32 36 33 36 33 37 32 37 34 37 35 38 31 38 33 38 36 39 37 39 38 39 38 40 37 40 39 40 40 41 41 41 38 41 36 42 38 42 42 42 42 43 38 43 41 43 42 44 41 44 43 44 44 45 45 45 40 45 38 46 46 46 40 46 40 47 46 47 47 47 40 48 47 48 44 48 44 49 47 49 48 49 44 50 48 50 49 50 39 51 50 51 23 51 37 52 35 52 39 52 39 53 35 53 33 53 39 54 33 54 50 54 50 55 33 55 34 55 23 56 22 56 39 56 39 57 22 57 26 57 39 58 26 58 38 58 38 59 26 59 27 59 38 60 27 60 46 60 46 61 27 61 28 61 46 62 28 62 47 62 47 63 28 63 29 63 47 64 29 64 48 64 51 65 52 65 53 65 53 66 52 66 54 66 53 67 54 67 55 67 55 68 54 68 56 68 55 69 56 69 57 69 57 70 56 70 58 70 57 71 58 71 59 71 59 72 58 72 60 72 59 73 60 73 61 73 61 74 60 74 62 74 61 75 62 75 63 75 63 76 62 76 64 76 63 77 64 77 65 77 65 78 64 78 66 78 65 79 66 79 67 79 67 80 66 80 68 80 67 81 68 81 69 81 69 82 68 82 70 82 69 83 70 83 71 83 71 84 70 84 72 84 71 85 72 85 73 85 73 86 72 86 74 86 73 87 74 87 51 87 51 88 74 88 52 88 49 89 75 89 44 89 44 90 75 90 76 90 44 91 76 91 45 91 77 92 78 92 79 92 77 93 79 93 80 93 80 94 79 94 81 94 80 95 81 95 82 95 82 96 81 96 83 96 82 97 83 97 84 97 84 98 83 98 85 98 84 99 85 99 86 99 86 100 85 100 87 100 86 101 87 101 88 101 88 102 87 102 89 102 88 103 89 103 90 103 90 104 89 104 76 104 90 105 76 105 75 105 4 106 78 106 5 106 5 107 78 107 77 107 5 108 77 108 6 108 16 109 15 109 91 109 41 110 40 110 92 110 92 111 40 111 93 111 92 112 93 112 94 112 94 113 93 113 95 113 94 114 95 114 91 114 91 115 95 115 96 115 91 116 96 116 16 116 16 117 96 117 3 117 15 118 14 118 91 118 91 119 14 119 97 119 91 120 97 120 94 120 98 121 43 121 41 121 99 122 100 122 101 122 101 123 100 123 102 123 102 124 100 124 103 124 102 125 103 125 97 125 103 126 104 126 97 126 97 127 104 127 105 127 97 128 105 128 94 128 94 129 105 129 106 129 94 130 106 130 107 130 107 131 108 131 94 131 94 132 108 132 98 132 94 133 98 133 92 133 92 134 98 134 41 134 101 135 109 135 99 135 99 136 109 136 110 136 99 137 110 137 111 137 111 138 110 138 112 138 111 139 112 139 113 139 113 140 112 140 114 140 113 141 114 141 115 141 115 142 114 142 98 142 115 143 98 143 116 143 116 144 98 144 108 144 4 145 3 145 78 145 78 146 3 146 69 146 78 147 69 147 79 147 79 148 69 148 71 148 79 149 71 149 81 149 81 150 71 150 73 150 81 151 73 151 83 151 83 152 73 152 51 152 76 153 57 153 59 153 57 154 76 154 55 154 55 155 76 155 89 155 55 156 89 156 53 156 53 157 89 157 87 157 53 158 87 158 51 158 51 159 87 159 85 159 51 160 85 160 83 160 40 161 45 161 93 161 93 162 45 162 76 162 93 163 76 163 95 163 95 164 76 164 59 164 59 165 61 165 95 165 95 166 61 166 63 166 95 167 63 167 96 167 96 168 63 168 65 168 96 169 65 169 3 169 3 170 65 170 67 170 3 171 67 171 69 171 35 172 37 172 117 172 117 173 37 173 118 173 117 174 118 174 119 174 119 175 118 175 120 175 119 176 120 176 121 176 121 177 120 177 122 177 121 178 122 178 18 178 18 179 122 179 0 179 32 180 31 180 35 180 18 181 20 181 121 181 121 182 20 182 30 182 121 183 30 183 119 183 123 184 124 184 125 184 125 185 124 185 126 185 126 186 124 186 127 186 126 187 127 187 30 187 127 188 128 188 30 188 30 189 128 189 129 189 30 190 129 190 119 190 119 191 129 191 130 191 119 192 130 192 131 192 131 193 132 193 119 193 119 194 132 194 32 194 119 195 32 195 117 195 117 196 32 196 35 196 125 197 133 197 123 197 123 198 133 198 134 198 123 199 134 199 135 199 135 200 134 200 136 200 135 201 136 201 137 201 137 202 136 202 138 202 137 203 138 203 139 203 139 204 138 204 32 204 139 205 32 205 140 205 140 206 32 206 132 206 1 207 0 207 141 207 141 208 0 208 142 208 141 209 142 209 143 209 143 210 142 210 144 210 143 211 144 211 145 211 145 212 144 212 146 212 145 213 146 213 147 213 147 214 146 214 148 214 149 215 150 215 151 215 150 216 149 216 152 216 152 217 149 217 153 217 152 218 153 218 154 218 154 219 153 219 155 219 154 220 155 220 148 220 148 221 155 221 156 221 148 222 156 222 147 222 37 223 36 223 118 223 118 224 36 224 149 224 118 225 149 225 120 225 120 226 149 226 151 226 151 227 157 227 120 227 120 228 157 228 158 228 120 229 158 229 122 229 122 230 158 230 159 230 122 231 159 231 0 231 0 232 159 232 160 232 0 233 160 233 142 233 148 234 99 234 154 234 154 235 99 235 111 235 154 236 111 236 152 236 152 237 111 237 113 237 152 238 113 238 150 238 150 239 113 239 115 239 150 240 115 240 151 240 151 241 115 241 116 241 151 242 116 242 157 242 157 243 116 243 108 243 157 244 108 244 158 244 158 245 108 245 107 245 158 246 107 246 159 246 159 247 107 247 106 247 159 248 106 248 160 248 160 249 106 249 105 249 160 250 105 250 142 250 142 251 105 251 104 251 142 252 104 252 144 252 144 253 104 253 103 253 144 254 103 254 146 254 146 255 103 255 100 255 146 256 100 256 148 256 148 257 100 257 99 257 161 258 123 258 162 258 162 259 123 259 135 259 162 260 135 260 163 260 163 261 135 261 137 261 163 262 137 262 164 262 164 263 137 263 139 263 164 264 139 264 165 264 165 265 139 265 140 265 165 266 140 266 166 266 166 267 140 267 132 267 166 268 132 268 167 268 167 269 132 269 131 269 167 270 131 270 168 270 168 271 131 271 130 271 168 272 130 272 169 272 169 273 130 273 129 273 169 274 129 274 170 274 170 275 129 275 128 275 170 276 128 276 171 276 171 277 128 277 127 277 171 278 127 278 172 278 172 254 127 254 124 254 172 279 124 279 161 279 161 280 124 280 123 280 1 281 141 281 2 281 2 282 141 282 97 282 2 283 97 283 14 283 97 284 141 284 143 284 97 285 143 285 102 285 102 286 143 286 145 286 102 287 145 287 101 287 101 288 145 288 147 288 101 289 147 289 109 289 109 290 147 290 156 290 109 291 156 291 110 291 110 292 156 292 155 292 110 293 155 293 112 293 112 294 155 294 153 294 112 295 153 295 114 295 114 296 153 296 149 296 114 297 149 297 98 297 43 298 98 298 42 298 42 299 98 299 149 299 42 300 149 300 36 300 126 301 30 301 25 301 173 302 34 302 32 302 32 303 138 303 173 303 173 304 138 304 136 304 173 305 136 305 174 305 174 306 136 306 134 306 174 307 134 307 175 307 175 308 134 308 133 308 175 309 133 309 176 309 176 310 133 310 125 310 176 311 125 311 177 311 177 312 125 312 126 312 177 313 126 313 178 313 178 314 126 314 25 314 48 315 29 315 7 315 7 316 6 316 77 316 64 317 7 317 66 317 66 318 7 318 77 318 66 319 77 319 68 319 68 320 77 320 70 320 64 321 62 321 7 321 7 322 62 322 75 322 7 323 75 323 48 323 48 324 75 324 49 324 70 325 77 325 72 325 72 326 77 326 80 326 72 327 80 327 74 327 74 328 80 328 82 328 74 329 82 329 52 329 82 330 84 330 52 330 52 331 84 331 86 331 52 332 86 332 54 332 54 333 86 333 88 333 54 334 88 334 56 334 56 335 88 335 90 335 56 336 90 336 58 336 58 337 90 337 75 337 58 338 75 338 60 338 60 339 75 339 62 339 167 340 23 340 50 340 23 341 167 341 24 341 24 342 167 342 168 342 24 343 168 343 25 343 161 344 162 344 174 344 174 345 162 345 173 345 173 346 162 346 163 346 173 347 163 347 34 347 163 348 164 348 34 348 34 349 164 349 165 349 34 350 165 350 50 350 50 351 165 351 166 351 50 352 166 352 167 352 168 353 169 353 25 353 25 354 169 354 170 354 25 355 170 355 178 355 178 356 170 356 171 356 178 357 171 357 177 357 177 358 171 358 172 358 177 359 172 359 176 359 176 360 172 360 161 360 176 361 161 361 175 361 175 362 161 362 174 362 12 363 179 363 21 363 21 364 179 364 180 364 21 365 180 365 9 365 9 366 180 366 181 366 9 367 181 367 10 367 10 368 181 368 182 368 10 369 182 369 12 369 12 370 182 370 179 370 183 371 182 371 184 371 184 372 182 372 181 372 184 373 181 373 185 373 185 374 181 374 180 374 185 375 180 375 186 375 186 376 180 376 179 376 186 377 179 377 183 377 183 378 179 378 182 378 187 379 188 379 189 379 189 380 188 380 190 380 183 381 188 381 186 381 186 382 188 382 187 382 184 383 190 383 183 383 183 384 190 384 188 384 185 385 189 385 184 385 184 386 189 386 190 386 186 387 187 387 185 387 185 388 187 388 189 388</p>
        </triangles>
      </mesh>
    </geometry>
  </library_geometries>
  <library_visual_scenes>
    <visual_scene id="Scene" name="Scene">
      <node id="Right_rudder" name="Right_rudder" type="NODE">
        <matrix sid="transform">1 0 0 0 0 1 0 0 0 0 1 0 0 0 0 1</matrix>
        <instance_geometry url="#Right_rudder-mesh" name="Right_rudder">
          <bind_material>
            <technique_common>
              <instance_material symbol="Material_001-material" target="#Material_001-material"/>
            </technique_common>
          </bind_material>
        </instance_geometry>
      </node>
    </visual_scene>
  </library_visual_scenes>
  <scene>
    <instance_visual_scene url="#Scene"/>
  </scene>
</COLLADA>